<svg xmlns="http://www.w3.org/2000/svg" width="1734" height="1683" fill="none" viewBox="0 0 1734 1683"><g filter="url(#a)" opacity=".16"><mask id="b" width="1066" height="1065" x="334" y="309" maskUnits="userSpaceOnUse" style="mask-type:alpha"><circle cx="867.001" cy="841.501" r="532.446" fill="#2388FF"/></mask><g mask="url(#b)"><circle cx="867.001" cy="841.501" r="532.446" fill="url(#c)"/><g filter="url(#d)"><circle cx="383.166" cy="376.045" r="483.814" fill="#5344FE" fill-opacity=".68"/></g><g filter="url(#e)" style="mix-blend-mode:overlay"><circle cx="1513.86" cy="841.499" r="350.294" fill="#FE445A"/></g><g filter="url(#f)" style="mix-blend-mode:overlay"><circle cx="478.77" cy="905.753" r="350.294" fill="#D74D12"/></g><g filter="url(#g)" style="mix-blend-mode:darken"><path fill="#AC0CB9" fill-opacity=".7" d="M1351.5 1119.11c-96.54 80.55-220.79 129.01-356.354 129.01-307.401 0-556.598-249.194-556.598-556.595 0-98.208 25.434-190.475 70.076-270.574-122.374 102.1-200.241 255.748-200.241 427.582 0 307.397 249.197 556.597 556.598 556.597 209.189 0 391.429-115.4 486.519-286.02"/></g></g></g><defs><filter id="a" width="1889.34" height="1889.34" x="-77.668" y="-103.169" color-interpolation-filters="sRGB" filterUnits="userSpaceOnUse"><feFlood flood-opacity="0" result="BackgroundImageFix"/><feBlend in="SourceGraphic" in2="BackgroundImageFix" result="shape"/><feGaussianBlur result="effect1_foregroundBlur_9957_236345" stdDeviation="206.112"/></filter><filter id="d" width="1588.81" height="1588.82" x="-411.242" y="-418.363" color-interpolation-filters="sRGB" filterUnits="userSpaceOnUse"><feFlood flood-opacity="0" result="BackgroundImageFix"/><feBlend in="SourceGraphic" in2="BackgroundImageFix" result="shape"/><feGaussianBlur result="effect1_foregroundBlur_9957_236345" stdDeviation="155.297"/></filter><filter id="e" width="1454.88" height="1454.89" x="786.413" y="114.056" color-interpolation-filters="sRGB" filterUnits="userSpaceOnUse"><feFlood flood-opacity="0" result="BackgroundImageFix"/><feBlend in="SourceGraphic" in2="BackgroundImageFix" result="shape"/><feGaussianBlur result="effect1_foregroundBlur_9957_236345" stdDeviation="188.575"/></filter><filter id="f" width="1454.88" height="1454.89" x="-248.673" y="178.31" color-interpolation-filters="sRGB" filterUnits="userSpaceOnUse"><feFlood flood-opacity="0" result="BackgroundImageFix"/><feBlend in="SourceGraphic" in2="BackgroundImageFix" result="shape"/><feGaussianBlur result="effect1_foregroundBlur_9957_236345" stdDeviation="188.575"/></filter><filter id="g" width="1309.34" height="1250.4" x="175.271" y="287.84" color-interpolation-filters="sRGB" filterUnits="userSpaceOnUse"><feFlood flood-opacity="0" result="BackgroundImageFix"/><feBlend in="SourceGraphic" in2="BackgroundImageFix" result="shape"/><feGaussianBlur result="effect1_foregroundBlur_9957_236345" stdDeviation="66.556"/></filter><radialGradient id="c" cx="0" cy="0" r="1" gradientTransform="rotate(103.201 215.646 707.582)scale(608.625)" gradientUnits="userSpaceOnUse"><stop stop-color="#0679FF"/><stop offset="1" stop-color="#2A8CFF"/></radialGradient></defs></svg>