<svg aria-hidden="true" focusable="false" width="721" height="433" viewBox="0 0 721 433" fill="none" xmlns="http://www.w3.org/2000/svg">
<mask id="mask0_20497_6755" style="mask-type:alpha" maskUnits="userSpaceOnUse" x="0" y="0" width="721" height="433">
<rect width="721" height="433" fill="url(#paint0_linear_20497_6755)"/>
</mask>
<g mask="url(#mask0_20497_6755)">
<mask id="mask1_20497_6755" style="mask-type:alpha" maskUnits="userSpaceOnUse" x="0" y="0" width="721" height="433">
<rect width="721" height="433" fill="url(#paint1_linear_20497_6755)"/>
</mask>
<g mask="url(#mask1_20497_6755)">
<rect x="0.5" y="0.5" width="48" height="48" stroke="var(--border-subtle)"/>
<rect x="48.5" y="0.5" width="48" height="48" stroke="var(--border-subtle)"/>
<rect x="96.5" y="0.5" width="48" height="48" stroke="var(--border-subtle)"/>
<rect x="144.5" y="0.5" width="48" height="48" stroke="var(--border-subtle)"/>
<rect x="192.5" y="0.5" width="48" height="48" stroke="var(--border-subtle)"/>
<rect x="240.5" y="0.5" width="48" height="48" stroke="var(--border-subtle)"/>
<rect x="288.5" y="0.5" width="48" height="48" stroke="var(--border-subtle)"/>
<rect x="336.5" y="0.5" width="48" height="48" stroke="var(--border-subtle)"/>
<rect x="384.5" y="0.5" width="48" height="48" stroke="var(--border-subtle)"/>
<rect x="432.5" y="0.5" width="48" height="48" stroke="var(--border-subtle)"/>
<rect x="480.5" y="0.5" width="48" height="48" stroke="var(--border-subtle)"/>
<rect x="528.5" y="0.5" width="48" height="48" stroke="var(--border-subtle)"/>
<rect x="576.5" y="0.5" width="48" height="48" stroke="var(--border-subtle)"/>
<rect x="624.5" y="0.5" width="48" height="48" stroke="var(--border-subtle)"/>
<rect x="672.5" y="0.5" width="48" height="48" stroke="var(--border-subtle)"/>
<rect x="0.5" y="48.5" width="48" height="48" stroke="var(--border-subtle)"/>
<rect x="48.5" y="48.5" width="48" height="48" stroke="var(--border-subtle)"/>
<rect x="96.5" y="48.5" width="48" height="48" stroke="var(--border-subtle)"/>
<rect x="144.5" y="48.5" width="48" height="48" stroke="var(--border-subtle)"/>
<rect x="192.5" y="48.5" width="48" height="48" stroke="var(--border-subtle)"/>
<rect x="240.5" y="48.5" width="48" height="48" stroke="var(--border-subtle)"/>
<rect x="288.5" y="48.5" width="48" height="48" stroke="var(--border-subtle)"/>
<rect x="336.5" y="48.5" width="48" height="48" stroke="var(--border-subtle)"/>
<rect x="384.5" y="48.5" width="48" height="48" stroke="var(--border-subtle)"/>
<rect x="432.5" y="48.5" width="48" height="48" stroke="var(--border-subtle)"/>
<rect x="480.5" y="48.5" width="48" height="48" stroke="var(--border-subtle)"/>
<rect x="528.5" y="48.5" width="48" height="48" stroke="var(--border-subtle)"/>
<rect x="576.5" y="48.5" width="48" height="48" stroke="var(--border-subtle)"/>
<rect x="624.5" y="48.5" width="48" height="48" stroke="var(--border-subtle)"/>
<rect x="672.5" y="48.5" width="48" height="48" stroke="var(--border-subtle)"/>
<rect x="0.5" y="96.5" width="48" height="48" stroke="var(--border-subtle)"/>
<rect x="48.5" y="96.5" width="48" height="48" stroke="var(--border-subtle)"/>
<rect x="96.5" y="96.5" width="48" height="48" stroke="var(--border-subtle)"/>
<rect x="144.5" y="96.5" width="48" height="48" stroke="var(--border-subtle)"/>
<rect x="192.5" y="96.5" width="48" height="48" stroke="var(--border-subtle)"/>
<rect x="240.5" y="96.5" width="48" height="48" stroke="var(--border-subtle)"/>
<rect x="288.5" y="96.5" width="48" height="48" stroke="var(--border-subtle)"/>
<rect x="336.5" y="96.5" width="48" height="48" stroke="var(--border-subtle)"/>
<rect x="384.5" y="96.5" width="48" height="48" stroke="var(--border-subtle)"/>
<rect x="432.5" y="96.5" width="48" height="48" stroke="var(--border-subtle)"/>
<rect x="480.5" y="96.5" width="48" height="48" stroke="var(--border-subtle)"/>
<rect x="528.5" y="96.5" width="48" height="48" stroke="var(--border-subtle)"/>
<rect x="576.5" y="96.5" width="48" height="48" stroke="var(--border-subtle)"/>
<rect x="624.5" y="96.5" width="48" height="48" stroke="var(--border-subtle)"/>
<rect x="672.5" y="96.5" width="48" height="48" stroke="var(--border-subtle)"/>
<rect x="0.5" y="144.5" width="48" height="48" stroke="var(--border-subtle)"/>
<rect x="48.5" y="144.5" width="48" height="48" stroke="var(--border-subtle)"/>
<rect x="96.5" y="144.5" width="48" height="48" stroke="var(--border-subtle)"/>
<rect x="144.5" y="144.5" width="48" height="48" stroke="var(--border-subtle)"/>
<rect x="192.5" y="144.5" width="48" height="48" stroke="var(--border-subtle)"/>
<rect x="240.5" y="144.5" width="48" height="48" stroke="var(--border-subtle)"/>
<rect x="288.5" y="144.5" width="48" height="48" stroke="var(--border-subtle)"/>
<rect x="336.5" y="144.5" width="48" height="48" stroke="var(--border-subtle)"/>
<rect x="384.5" y="144.5" width="48" height="48" stroke="var(--border-subtle)"/>
<rect x="432.5" y="144.5" width="48" height="48" stroke="var(--border-subtle)"/>
<rect x="480.5" y="144.5" width="48" height="48" stroke="var(--border-subtle)"/>
<rect x="528.5" y="144.5" width="48" height="48" stroke="var(--border-subtle)"/>
<rect x="576.5" y="144.5" width="48" height="48" stroke="var(--border-subtle)"/>
<rect x="624.5" y="144.5" width="48" height="48" stroke="var(--border-subtle)"/>
<rect x="672.5" y="144.5" width="48" height="48" stroke="var(--border-subtle)"/>
<rect x="0.5" y="192.5" width="48" height="48" stroke="var(--border-subtle)"/>
<rect x="48.5" y="192.5" width="48" height="48" stroke="var(--border-subtle)"/>
<rect x="96.5" y="192.5" width="48" height="48" stroke="var(--border-subtle)"/>
<rect x="144.5" y="192.5" width="48" height="48" stroke="var(--border-subtle)"/>
<rect x="192.5" y="192.5" width="48" height="48" stroke="var(--border-subtle)"/>
<rect x="240.5" y="192.5" width="48" height="48" stroke="var(--border-subtle)"/>
<rect x="288.5" y="192.5" width="48" height="48" stroke="var(--border-subtle)"/>
<rect x="336.5" y="192.5" width="48" height="48" stroke="var(--border-subtle)"/>
<rect x="384.5" y="192.5" width="48" height="48" stroke="var(--border-subtle)"/>
<rect x="432.5" y="192.5" width="48" height="48" stroke="var(--border-subtle)"/>
<rect x="480.5" y="192.5" width="48" height="48" stroke="var(--border-subtle)"/>
<rect x="528.5" y="192.5" width="48" height="48" stroke="var(--border-subtle)"/>
<rect x="576.5" y="192.5" width="48" height="48" stroke="var(--border-subtle)"/>
<rect x="624.5" y="192.5" width="48" height="48" stroke="var(--border-subtle)"/>
<rect x="672.5" y="192.5" width="48" height="48" stroke="var(--border-subtle)"/>
<rect x="0.5" y="240.5" width="48" height="48" stroke="var(--border-subtle)"/>
<rect x="48.5" y="240.5" width="48" height="48" stroke="var(--border-subtle)"/>
<rect x="96.5" y="240.5" width="48" height="48" stroke="var(--border-subtle)"/>
<rect x="144.5" y="240.5" width="48" height="48" stroke="var(--border-subtle)"/>
<rect x="192.5" y="240.5" width="48" height="48" stroke="var(--border-subtle)"/>
<rect x="240.5" y="240.5" width="48" height="48" stroke="var(--border-subtle)"/>
<rect x="288.5" y="240.5" width="48" height="48" stroke="var(--border-subtle)"/>
<rect x="336.5" y="240.5" width="48" height="48" stroke="var(--border-subtle)"/>
<rect x="384.5" y="240.5" width="48" height="48" stroke="var(--border-subtle)"/>
<rect x="432.5" y="240.5" width="48" height="48" stroke="var(--border-subtle)"/>
<rect x="480.5" y="240.5" width="48" height="48" stroke="var(--border-subtle)"/>
<rect x="528.5" y="240.5" width="48" height="48" stroke="var(--border-subtle)"/>
<rect x="576.5" y="240.5" width="48" height="48" stroke="var(--border-subtle)"/>
<rect x="624.5" y="240.5" width="48" height="48" stroke="var(--border-subtle)"/>
<rect x="672.5" y="240.5" width="48" height="48" stroke="var(--border-subtle)"/>
<rect x="0.5" y="288.5" width="48" height="48" stroke="var(--border-subtle)"/>
<rect x="48.5" y="288.5" width="48" height="48" stroke="var(--border-subtle)"/>
<rect x="96.5" y="288.5" width="48" height="48" stroke="var(--border-subtle)"/>
<rect x="144.5" y="288.5" width="48" height="48" stroke="var(--border-subtle)"/>
<rect x="192.5" y="288.5" width="48" height="48" stroke="var(--border-subtle)"/>
<rect x="240.5" y="288.5" width="48" height="48" stroke="var(--border-subtle)"/>
<rect x="288.5" y="288.5" width="48" height="48" stroke="var(--border-subtle)"/>
<rect x="336.5" y="288.5" width="48" height="48" stroke="var(--border-subtle)"/>
<rect x="384.5" y="288.5" width="48" height="48" stroke="var(--border-subtle)"/>
<rect x="432.5" y="288.5" width="48" height="48" stroke="var(--border-subtle)"/>
<rect x="480.5" y="288.5" width="48" height="48" stroke="var(--border-subtle)"/>
<rect x="528.5" y="288.5" width="48" height="48" stroke="var(--border-subtle)"/>
<rect x="576.5" y="288.5" width="48" height="48" stroke="var(--border-subtle)"/>
<rect x="624.5" y="288.5" width="48" height="48" stroke="var(--border-subtle)"/>
<rect x="672.5" y="288.5" width="48" height="48" stroke="var(--border-subtle)"/>
<rect x="0.5" y="336.5" width="48" height="48" stroke="var(--border-subtle)"/>
<rect x="48.5" y="336.5" width="48" height="48" stroke="var(--border-subtle)"/>
<rect x="96.5" y="336.5" width="48" height="48" stroke="var(--border-subtle)"/>
<rect x="144.5" y="336.5" width="48" height="48" stroke="var(--border-subtle)"/>
<rect x="192.5" y="336.5" width="48" height="48" stroke="var(--border-subtle)"/>
<rect x="240.5" y="336.5" width="48" height="48" stroke="var(--border-subtle)"/>
<rect x="288.5" y="336.5" width="48" height="48" stroke="var(--border-subtle)"/>
<rect x="336.5" y="336.5" width="48" height="48" stroke="var(--border-subtle)"/>
<rect x="384.5" y="336.5" width="48" height="48" stroke="var(--border-subtle)"/>
<rect x="432.5" y="336.5" width="48" height="48" stroke="var(--border-subtle)"/>
<rect x="480.5" y="336.5" width="48" height="48" stroke="var(--border-subtle)"/>
<rect x="528.5" y="336.5" width="48" height="48" stroke="var(--border-subtle)"/>
<rect x="576.5" y="336.5" width="48" height="48" stroke="var(--border-subtle)"/>
<rect x="624.5" y="336.5" width="48" height="48" stroke="var(--border-subtle)"/>
<rect x="672.5" y="336.5" width="48" height="48" stroke="var(--border-subtle)"/>
<rect x="0.5" y="384.5" width="48" height="48" stroke="var(--border-subtle)"/>
<rect x="48.5" y="384.5" width="48" height="48" stroke="var(--border-subtle)"/>
<rect x="96.5" y="384.5" width="48" height="48" stroke="var(--border-subtle)"/>
<rect x="144.5" y="384.5" width="48" height="48" stroke="var(--border-subtle)"/>
<rect x="192.5" y="384.5" width="48" height="48" stroke="var(--border-subtle)"/>
<rect x="240.5" y="384.5" width="48" height="48" stroke="var(--border-subtle)"/>
<rect x="288.5" y="384.5" width="48" height="48" stroke="var(--border-subtle)"/>
<rect x="336.5" y="384.5" width="48" height="48" stroke="var(--border-subtle)"/>
<rect x="384.5" y="384.5" width="48" height="48" stroke="var(--border-subtle)"/>
<rect x="432.5" y="384.5" width="48" height="48" stroke="var(--border-subtle)"/>
<rect x="480.5" y="384.5" width="48" height="48" stroke="var(--border-subtle)"/>
<rect x="528.5" y="384.5" width="48" height="48" stroke="var(--border-subtle)"/>
<rect x="576.5" y="384.5" width="48" height="48" stroke="var(--border-subtle)"/>
<rect x="624.5" y="384.5" width="48" height="48" stroke="var(--border-subtle)"/>
<rect x="672.5" y="384.5" width="48" height="48" stroke="var(--border-subtle)"/>
<g filter="url(#filter0_i_20497_6755)">
<rect x="528.5" y="144.5" width="48" height="48" fill="var(--muted)"/>
<rect x="528.5" y="144.5" width="48" height="48" stroke="var(--border)"/>
</g>
<g filter="url(#filter1_i_20497_6755)">
<rect x="576.5" y="192.5" width="48" height="48" fill="var(--muted)"/>
<rect x="576.5" y="192.5" width="48" height="48" stroke="var(--border)"/>
</g>
<g filter="url(#filter2_i_20497_6755)">
<rect x="528.5" y="240.5" width="48" height="48" fill="var(--muted)"/>
<rect x="528.5" y="240.5" width="48" height="48" stroke="var(--border)"/>
</g>
<g filter="url(#filter3_i_20497_6755)">
<rect x="192.5" y="96.5" width="48" height="48" fill="var(--muted)"/>
<rect x="192.5" y="96.5" width="48" height="48" stroke="var(--border)"/>
</g>
<g filter="url(#filter4_i_20497_6755)">
<rect x="96.5" y="192.5" width="48" height="48" fill="var(--muted)"/>
<rect x="96.5" y="192.5" width="48" height="48" stroke="var(--border)"/>
</g>
<g filter="url(#filter5_i_20497_6755)">
<rect x="144.5" y="144.5" width="48" height="48" fill="var(--muted)"/>
<rect x="144.5" y="144.5" width="48" height="48" stroke="var(--border)"/>
</g>
<g filter="url(#filter6_i_20497_6755)">
<rect x="144.5" y="240.5" width="48" height="48" fill="var(--muted)"/>
<rect x="144.5" y="240.5" width="48" height="48" stroke="var(--border)"/>
</g>
<g filter="url(#filter7_i_20497_6755)">
<rect x="288.5" y="240.5" width="48" height="48" fill="var(--muted)"/>
<rect x="288.5" y="240.5" width="48" height="48" stroke="var(--border)"/>
</g>
<g filter="url(#filter8_i_20497_6755)">
<rect x="192.5" y="288.5" width="48" height="48" fill="var(--muted)"/>
<rect x="192.5" y="288.5" width="48" height="48" stroke="var(--border)"/>
</g>
<g filter="url(#filter9_i_20497_6755)">
<rect x="336.5" y="192.5" width="48" height="48" fill="var(--muted)"/>
<rect x="336.5" y="192.5" width="48" height="48" stroke="var(--border)"/>
</g>
<g filter="url(#filter10_i_20497_6755)">
<rect x="384.5" y="144.5" width="48" height="48" fill="var(--muted)"/>
<rect x="384.5" y="144.5" width="48" height="48" stroke="var(--border)"/>
</g>
<g filter="url(#filter11_i_20497_6755)">
<rect x="480.5" y="96.5" width="48" height="48" fill="var(--muted)"/>
<rect x="480.5" y="96.5" width="48" height="48" stroke="var(--border)"/>
</g>
<g filter="url(#filter12_i_20497_6755)">
<rect x="480.5" y="288.5" width="48" height="48" fill="var(--muted)"/>
<rect x="480.5" y="288.5" width="48" height="48" stroke="var(--border)"/>
</g>
</g>
</g>
<defs>
<filter id="filter0_i_20497_6755" x="528" y="144" width="49" height="55" filterUnits="userSpaceOnUse" color-interpolation-filters="sRGB">
<feFlood flood-opacity="0" result="BackgroundImageFix"/>
<feBlend mode="normal" in="SourceGraphic" in2="BackgroundImageFix" result="shape"/>
<feColorMatrix in="SourceAlpha" type="matrix" values="0 0 0 0 0 0 0 0 0 0 0 0 0 0 0 0 0 0 127 0" result="hardAlpha"/>
<feOffset dy="6"/>
<feGaussianBlur stdDeviation="8"/>
<feComposite in2="hardAlpha" operator="arithmetic" k2="-1" k3="1"/>
<feColorMatrix type="matrix" values="0 0 0 0 0 0 0 0 0 0 0 0 0 0 0 0 0 0 0.04 0"/>
<feBlend mode="normal" in2="shape" result="effect1_innerShadow_20497_6755"/>
</filter>
<filter id="filter1_i_20497_6755" x="576" y="192" width="49" height="55" filterUnits="userSpaceOnUse" color-interpolation-filters="sRGB">
<feFlood flood-opacity="0" result="BackgroundImageFix"/>
<feBlend mode="normal" in="SourceGraphic" in2="BackgroundImageFix" result="shape"/>
<feColorMatrix in="SourceAlpha" type="matrix" values="0 0 0 0 0 0 0 0 0 0 0 0 0 0 0 0 0 0 127 0" result="hardAlpha"/>
<feOffset dy="6"/>
<feGaussianBlur stdDeviation="8"/>
<feComposite in2="hardAlpha" operator="arithmetic" k2="-1" k3="1"/>
<feColorMatrix type="matrix" values="0 0 0 0 0 0 0 0 0 0 0 0 0 0 0 0 0 0 0.04 0"/>
<feBlend mode="normal" in2="shape" result="effect1_innerShadow_20497_6755"/>
</filter>
<filter id="filter2_i_20497_6755" x="528" y="240" width="49" height="55" filterUnits="userSpaceOnUse" color-interpolation-filters="sRGB">
<feFlood flood-opacity="0" result="BackgroundImageFix"/>
<feBlend mode="normal" in="SourceGraphic" in2="BackgroundImageFix" result="shape"/>
<feColorMatrix in="SourceAlpha" type="matrix" values="0 0 0 0 0 0 0 0 0 0 0 0 0 0 0 0 0 0 127 0" result="hardAlpha"/>
<feOffset dy="6"/>
<feGaussianBlur stdDeviation="8"/>
<feComposite in2="hardAlpha" operator="arithmetic" k2="-1" k3="1"/>
<feColorMatrix type="matrix" values="0 0 0 0 0 0 0 0 0 0 0 0 0 0 0 0 0 0 0.04 0"/>
<feBlend mode="normal" in2="shape" result="effect1_innerShadow_20497_6755"/>
</filter>
<filter id="filter3_i_20497_6755" x="192" y="96" width="49" height="55" filterUnits="userSpaceOnUse" color-interpolation-filters="sRGB">
<feFlood flood-opacity="0" result="BackgroundImageFix"/>
<feBlend mode="normal" in="SourceGraphic" in2="BackgroundImageFix" result="shape"/>
<feColorMatrix in="SourceAlpha" type="matrix" values="0 0 0 0 0 0 0 0 0 0 0 0 0 0 0 0 0 0 127 0" result="hardAlpha"/>
<feOffset dy="6"/>
<feGaussianBlur stdDeviation="8"/>
<feComposite in2="hardAlpha" operator="arithmetic" k2="-1" k3="1"/>
<feColorMatrix type="matrix" values="0 0 0 0 0 0 0 0 0 0 0 0 0 0 0 0 0 0 0.04 0"/>
<feBlend mode="normal" in2="shape" result="effect1_innerShadow_20497_6755"/>
</filter>
<filter id="filter4_i_20497_6755" x="96" y="192" width="49" height="55" filterUnits="userSpaceOnUse" color-interpolation-filters="sRGB">
<feFlood flood-opacity="0" result="BackgroundImageFix"/>
<feBlend mode="normal" in="SourceGraphic" in2="BackgroundImageFix" result="shape"/>
<feColorMatrix in="SourceAlpha" type="matrix" values="0 0 0 0 0 0 0 0 0 0 0 0 0 0 0 0 0 0 127 0" result="hardAlpha"/>
<feOffset dy="6"/>
<feGaussianBlur stdDeviation="8"/>
<feComposite in2="hardAlpha" operator="arithmetic" k2="-1" k3="1"/>
<feColorMatrix type="matrix" values="0 0 0 0 0 0 0 0 0 0 0 0 0 0 0 0 0 0 0.04 0"/>
<feBlend mode="normal" in2="shape" result="effect1_innerShadow_20497_6755"/>
</filter>
<filter id="filter5_i_20497_6755" x="144" y="144" width="49" height="55" filterUnits="userSpaceOnUse" color-interpolation-filters="sRGB">
<feFlood flood-opacity="0" result="BackgroundImageFix"/>
<feBlend mode="normal" in="SourceGraphic" in2="BackgroundImageFix" result="shape"/>
<feColorMatrix in="SourceAlpha" type="matrix" values="0 0 0 0 0 0 0 0 0 0 0 0 0 0 0 0 0 0 127 0" result="hardAlpha"/>
<feOffset dy="6"/>
<feGaussianBlur stdDeviation="8"/>
<feComposite in2="hardAlpha" operator="arithmetic" k2="-1" k3="1"/>
<feColorMatrix type="matrix" values="0 0 0 0 0 0 0 0 0 0 0 0 0 0 0 0 0 0 0.04 0"/>
<feBlend mode="normal" in2="shape" result="effect1_innerShadow_20497_6755"/>
</filter>
<filter id="filter6_i_20497_6755" x="144" y="240" width="49" height="55" filterUnits="userSpaceOnUse" color-interpolation-filters="sRGB">
<feFlood flood-opacity="0" result="BackgroundImageFix"/>
<feBlend mode="normal" in="SourceGraphic" in2="BackgroundImageFix" result="shape"/>
<feColorMatrix in="SourceAlpha" type="matrix" values="0 0 0 0 0 0 0 0 0 0 0 0 0 0 0 0 0 0 127 0" result="hardAlpha"/>
<feOffset dy="6"/>
<feGaussianBlur stdDeviation="8"/>
<feComposite in2="hardAlpha" operator="arithmetic" k2="-1" k3="1"/>
<feColorMatrix type="matrix" values="0 0 0 0 0 0 0 0 0 0 0 0 0 0 0 0 0 0 0.04 0"/>
<feBlend mode="normal" in2="shape" result="effect1_innerShadow_20497_6755"/>
</filter>
<filter id="filter7_i_20497_6755" x="288" y="240" width="49" height="55" filterUnits="userSpaceOnUse" color-interpolation-filters="sRGB">
<feFlood flood-opacity="0" result="BackgroundImageFix"/>
<feBlend mode="normal" in="SourceGraphic" in2="BackgroundImageFix" result="shape"/>
<feColorMatrix in="SourceAlpha" type="matrix" values="0 0 0 0 0 0 0 0 0 0 0 0 0 0 0 0 0 0 127 0" result="hardAlpha"/>
<feOffset dy="6"/>
<feGaussianBlur stdDeviation="8"/>
<feComposite in2="hardAlpha" operator="arithmetic" k2="-1" k3="1"/>
<feColorMatrix type="matrix" values="0 0 0 0 0 0 0 0 0 0 0 0 0 0 0 0 0 0 0.04 0"/>
<feBlend mode="normal" in2="shape" result="effect1_innerShadow_20497_6755"/>
</filter>
<filter id="filter8_i_20497_6755" x="192" y="288" width="49" height="55" filterUnits="userSpaceOnUse" color-interpolation-filters="sRGB">
<feFlood flood-opacity="0" result="BackgroundImageFix"/>
<feBlend mode="normal" in="SourceGraphic" in2="BackgroundImageFix" result="shape"/>
<feColorMatrix in="SourceAlpha" type="matrix" values="0 0 0 0 0 0 0 0 0 0 0 0 0 0 0 0 0 0 127 0" result="hardAlpha"/>
<feOffset dy="6"/>
<feGaussianBlur stdDeviation="8"/>
<feComposite in2="hardAlpha" operator="arithmetic" k2="-1" k3="1"/>
<feColorMatrix type="matrix" values="0 0 0 0 0 0 0 0 0 0 0 0 0 0 0 0 0 0 0.04 0"/>
<feBlend mode="normal" in2="shape" result="effect1_innerShadow_20497_6755"/>
</filter>
<filter id="filter9_i_20497_6755" x="336" y="192" width="49" height="55" filterUnits="userSpaceOnUse" color-interpolation-filters="sRGB">
<feFlood flood-opacity="0" result="BackgroundImageFix"/>
<feBlend mode="normal" in="SourceGraphic" in2="BackgroundImageFix" result="shape"/>
<feColorMatrix in="SourceAlpha" type="matrix" values="0 0 0 0 0 0 0 0 0 0 0 0 0 0 0 0 0 0 127 0" result="hardAlpha"/>
<feOffset dy="6"/>
<feGaussianBlur stdDeviation="8"/>
<feComposite in2="hardAlpha" operator="arithmetic" k2="-1" k3="1"/>
<feColorMatrix type="matrix" values="0 0 0 0 0 0 0 0 0 0 0 0 0 0 0 0 0 0 0.04 0"/>
<feBlend mode="normal" in2="shape" result="effect1_innerShadow_20497_6755"/>
</filter>
<filter id="filter10_i_20497_6755" x="384" y="144" width="49" height="55" filterUnits="userSpaceOnUse" color-interpolation-filters="sRGB">
<feFlood flood-opacity="0" result="BackgroundImageFix"/>
<feBlend mode="normal" in="SourceGraphic" in2="BackgroundImageFix" result="shape"/>
<feColorMatrix in="SourceAlpha" type="matrix" values="0 0 0 0 0 0 0 0 0 0 0 0 0 0 0 0 0 0 127 0" result="hardAlpha"/>
<feOffset dy="6"/>
<feGaussianBlur stdDeviation="8"/>
<feComposite in2="hardAlpha" operator="arithmetic" k2="-1" k3="1"/>
<feColorMatrix type="matrix" values="0 0 0 0 0 0 0 0 0 0 0 0 0 0 0 0 0 0 0.04 0"/>
<feBlend mode="normal" in2="shape" result="effect1_innerShadow_20497_6755"/>
</filter>
<filter id="filter11_i_20497_6755" x="480" y="96" width="49" height="55" filterUnits="userSpaceOnUse" color-interpolation-filters="sRGB">
<feFlood flood-opacity="0" result="BackgroundImageFix"/>
<feBlend mode="normal" in="SourceGraphic" in2="BackgroundImageFix" result="shape"/>
<feColorMatrix in="SourceAlpha" type="matrix" values="0 0 0 0 0 0 0 0 0 0 0 0 0 0 0 0 0 0 127 0" result="hardAlpha"/>
<feOffset dy="6"/>
<feGaussianBlur stdDeviation="8"/>
<feComposite in2="hardAlpha" operator="arithmetic" k2="-1" k3="1"/>
<feColorMatrix type="matrix" values="0 0 0 0 0 0 0 0 0 0 0 0 0 0 0 0 0 0 0.04 0"/>
<feBlend mode="normal" in2="shape" result="effect1_innerShadow_20497_6755"/>
</filter>
<filter id="filter12_i_20497_6755" x="480" y="288" width="49" height="55" filterUnits="userSpaceOnUse" color-interpolation-filters="sRGB">
<feFlood flood-opacity="0" result="BackgroundImageFix"/>
<feBlend mode="normal" in="SourceGraphic" in2="BackgroundImageFix" result="shape"/>
<feColorMatrix in="SourceAlpha" type="matrix" values="0 0 0 0 0 0 0 0 0 0 0 0 0 0 0 0 0 0 127 0" result="hardAlpha"/>
<feOffset dy="6"/>
<feGaussianBlur stdDeviation="8"/>
<feComposite in2="hardAlpha" operator="arithmetic" k2="-1" k3="1"/>
<feColorMatrix type="matrix" values="0 0 0 0 0 0 0 0 0 0 0 0 0 0 0 0 0 0 0.04 0"/>
<feBlend mode="normal" in2="shape" result="effect1_innerShadow_20497_6755"/>
</filter>
<linearGradient id="paint0_linear_20497_6755" x1="721" y1="216.5" x2="0" y2="216.5" gradientUnits="userSpaceOnUse">
<stop stop-opacity="0"/>
<stop offset="0.102273"/>
<stop offset="0.901515"/>
<stop offset="1" stop-opacity="0"/>
</linearGradient>
<linearGradient id="paint1_linear_20497_6755" x1="360.5" y1="0" x2="360.5" y2="433" gradientUnits="userSpaceOnUse">
<stop stop-opacity="0"/>
<stop offset="0.204167"/>
<stop offset="0.8"/>
<stop offset="1" stop-opacity="0"/>
</linearGradient>
</defs>
</svg>
