<svg width="384" height="384" viewBox="0 0 384 384" fill="none" xmlns="http://www.w3.org/2000/svg">
<g clip-path="url(#clip0_22316_243485)">
<rect width="384" height="384" rx="96" fill="url(#paint0_linear_22316_243485)"/>
<g opacity="0.56" filter="url(#filter0_f_22316_243485)">
<path d="M240 224V292C240 298.627 245.373 304 252 304H276C282.627 304 288 298.627 288 292V236C288 229.373 282.627 224 276 224H240Z" fill="#111111"/>
<path d="M108 80C101.373 80 96 85.3726 96 92V292C96 298.627 101.373 304 108 304H132C138.627 304 144 298.627 144 292V236C144 229.373 149.373 224 156 224H240V176H156C149.373 176 144 170.627 144 164V140C144 133.373 149.373 128 156 128H228C234.627 128 240 133.373 240 140V176H276C282.627 176 288 170.627 288 164V92C288 85.3726 282.627 80 276 80H108Z" fill="#111111"/>
</g>
<g filter="url(#filter1_f_22316_243485)">
<circle cx="64" cy="448" r="192" fill="#101010"/>
</g>
<g filter="url(#filter2_f_22316_243485)">
<circle cx="448" cy="-64" r="192" fill="#858585"/>
</g>
<g filter="url(#filter3_f_22316_243485)">
<circle cx="-64" cy="64" r="192" fill="#686868"/>
</g>
<g filter="url(#filter4_i_22316_243485)">
<path d="M240 224V300C240 302.209 241.791 304 244 304H284C286.209 304 288 302.209 288 300V228C288 225.791 286.209 224 284 224H240Z" fill="url(#paint1_linear_22316_243485)"/>
<path d="M100 80C97.7909 80 96 81.7909 96 84V300C96 302.209 97.7909 304 100 304H140C142.209 304 144 302.209 144 300V228C144 225.791 145.791 224 148 224H240V176H148C145.791 176 144 174.209 144 172V132C144 129.791 145.791 128 148 128H236C238.209 128 240 129.791 240 132V176H284C286.209 176 288 174.209 288 172V84C288 81.7909 286.209 80 284 80H100Z" fill="url(#paint2_linear_22316_243485)"/>
</g>
<path d="M288 4C338.81 4 380 45.1898 380 96C380 47.3989 338.81 8 288 8H96C45.1898 8 4 47.3989 4 96C4 45.1898 45.1898 4 96 4H288Z" fill="url(#paint3_linear_22316_243485)" fill-opacity="0.4"/>
</g>
<defs>
<filter id="filter0_f_22316_243485" x="84" y="68" width="216" height="248" filterUnits="userSpaceOnUse" color-interpolation-filters="sRGB">
<feFlood flood-opacity="0" result="BackgroundImageFix"/>
<feBlend mode="normal" in="SourceGraphic" in2="BackgroundImageFix" result="shape"/>
<feGaussianBlur stdDeviation="6" result="effect1_foregroundBlur_22316_243485"/>
</filter>
<filter id="filter1_f_22316_243485" x="-384" y="0" width="896" height="896" filterUnits="userSpaceOnUse" color-interpolation-filters="sRGB">
<feFlood flood-opacity="0" result="BackgroundImageFix"/>
<feBlend mode="normal" in="SourceGraphic" in2="BackgroundImageFix" result="shape"/>
<feGaussianBlur stdDeviation="128" result="effect1_foregroundBlur_22316_243485"/>
</filter>
<filter id="filter2_f_22316_243485" x="0" y="-512" width="896" height="896" filterUnits="userSpaceOnUse" color-interpolation-filters="sRGB">
<feFlood flood-opacity="0" result="BackgroundImageFix"/>
<feBlend mode="normal" in="SourceGraphic" in2="BackgroundImageFix" result="shape"/>
<feGaussianBlur stdDeviation="128" result="effect1_foregroundBlur_22316_243485"/>
</filter>
<filter id="filter3_f_22316_243485" x="-512" y="-384" width="896" height="896" filterUnits="userSpaceOnUse" color-interpolation-filters="sRGB">
<feFlood flood-opacity="0" result="BackgroundImageFix"/>
<feBlend mode="normal" in="SourceGraphic" in2="BackgroundImageFix" result="shape"/>
<feGaussianBlur stdDeviation="128" result="effect1_foregroundBlur_22316_243485"/>
</filter>
<filter id="filter4_i_22316_243485" x="96" y="80" width="192" height="224" filterUnits="userSpaceOnUse" color-interpolation-filters="sRGB">
<feFlood flood-opacity="0" result="BackgroundImageFix"/>
<feBlend mode="normal" in="SourceGraphic" in2="BackgroundImageFix" result="shape"/>
<feColorMatrix in="SourceAlpha" type="matrix" values="0 0 0 0 0 0 0 0 0 0 0 0 0 0 0 0 0 0 127 0" result="hardAlpha"/>
<feOffset dy="4"/>
<feComposite in2="hardAlpha" operator="arithmetic" k2="-1" k3="1"/>
<feColorMatrix type="matrix" values="0 0 0 0 1 0 0 0 0 1 0 0 0 0 1 0 0 0 0.64 0"/>
<feBlend mode="normal" in2="shape" result="effect1_innerShadow_22316_243485"/>
</filter>
<linearGradient id="paint0_linear_22316_243485" x1="192" y1="0" x2="192" y2="384" gradientUnits="userSpaceOnUse">
<stop stop-color="#393939"/>
<stop offset="1" stop-color="#242424"/>
</linearGradient>
<linearGradient id="paint1_linear_22316_243485" x1="288" y1="80" x2="96" y2="304" gradientUnits="userSpaceOnUse">
<stop stop-color="white"/>
<stop offset="0.343384" stop-color="white" stop-opacity="0.88"/>
<stop offset="0.503466" stop-color="white" stop-opacity="0.8"/>
<stop offset="0.745435" stop-color="white" stop-opacity="0.68"/>
</linearGradient>
<linearGradient id="paint2_linear_22316_243485" x1="288" y1="80" x2="96" y2="304" gradientUnits="userSpaceOnUse">
<stop stop-color="white"/>
<stop offset="0.343384" stop-color="white" stop-opacity="0.88"/>
<stop offset="0.503466" stop-color="white" stop-opacity="0.8"/>
<stop offset="0.745435" stop-color="white" stop-opacity="0.68"/>
</linearGradient>
<linearGradient id="paint3_linear_22316_243485" x1="4" y1="50" x2="380" y2="50" gradientUnits="userSpaceOnUse">
<stop stop-color="white" stop-opacity="0.64"/>
<stop offset="1" stop-color="white"/>
</linearGradient>
<clipPath id="clip0_22316_243485">
<rect width="384" height="384" rx="96" fill="white"/>
</clipPath>
</defs>
</svg>
