<svg xmlns="http://www.w3.org/2000/svg" viewBox="0 0 111.6 93.4" xml:space="preserve"><path d="M49.8 1.2 8.3 18.4c-2.3 1-2.3 4.2 0 5.2L50 40.2c3.7 1.4 7.7 1.4 11.4 0l41.8-16.6c2.3-1 2.4-4.2 0-5.2L61.7 1.2c-3.8-1.6-8.1-1.6-11.9 0" style="fill:#fcb400"/><path d="M59.5 49.2v41.4c0 2 2 3.4 3.8 2.6l46.6-18c1.1-.4 1.7-1.4 1.7-2.6V31.2c0-2-2-3.4-3.8-2.6l-46.6 18c-1.1.4-1.7 1.4-1.7 2.6" style="fill:#18bfff"/><path d="M0 31.3v38.9c0 2.1 2.4 3.4 4.2 2.5l29.1-14 1.4-.7L.9 29.4c-.5.5-.9 1.1-.9 1.9" style="fill:#f82b60"/><path d="M48.4 46.3 4.1 28.7c-.9-.3-1.8-.2-2.5.2-.2.1-.5.3-.8.5L34.7 58l13.8-6.6c2.3-1.1 2.1-4.3-.1-5.1" style="fill:#ba1e45"/></svg>