<svg width="22" height="28" viewBox="0 0 22 28" fill="none" xmlns="http://www.w3.org/2000/svg">
<path d="M5.66536 20.0001C5.40166 20.0001 5.14387 20.0783 4.9246 20.2248C4.70534 20.3713 4.53444 20.5795 4.43353 20.8232C4.33261 21.0668 4.3062 21.3349 4.35765 21.5935C4.4091 21.8522 4.53609 22.0898 4.72256 22.2762C4.90903 22.4627 5.1466 22.5897 5.40524 22.6411C5.66389 22.6926 5.93197 22.6662 6.17561 22.5653C6.41924 22.4643 6.62748 22.2934 6.77399 22.0742C6.9205 21.8549 6.9987 21.5971 6.9987 21.3334C6.9987 20.9798 6.85822 20.6407 6.60817 20.3906C6.35813 20.1406 6.01899 20.0001 5.66536 20.0001ZM10.9987 0.666748C5.66536 0.666748 0.332031 2.49341 0.332031 6.00008V22.0001C0.332031 25.5067 5.66536 27.3334 10.9987 27.3334C16.332 27.3334 21.6654 25.5067 21.6654 22.0001V6.00008C21.6654 2.49341 16.332 0.666748 10.9987 0.666748ZM18.9987 22.0001C18.9987 22.9467 15.9587 24.6667 10.9987 24.6667C6.0387 24.6667 2.9987 22.9467 2.9987 22.0001V17.6401C5.49479 18.8267 8.23589 19.4069 10.9987 19.3334C13.7615 19.4069 16.5026 18.8267 18.9987 17.6401V22.0001ZM18.9987 14.0001C18.9987 14.9467 15.9587 16.6667 10.9987 16.6667C6.0387 16.6667 2.9987 14.9467 2.9987 14.0001V9.64008C5.49479 10.8267 8.23589 11.4069 10.9987 11.3334C13.7615 11.4069 16.5026 10.8267 18.9987 9.64008V14.0001ZM10.9987 8.66675C6.0387 8.66675 2.9987 6.94675 2.9987 6.00008C2.9987 5.05341 6.0387 3.33341 10.9987 3.33341C15.9587 3.33341 18.9987 5.05341 18.9987 6.00008C18.9987 6.94675 15.9587 8.66675 10.9987 8.66675ZM5.66536 12.0001C5.40166 12.0001 5.14387 12.0783 4.9246 12.2248C4.70534 12.3713 4.53444 12.5795 4.43353 12.8232C4.33261 13.0668 4.3062 13.3349 4.35765 13.5935C4.4091 13.8522 4.53609 14.0898 4.72256 14.2762C4.90903 14.4627 5.1466 14.5897 5.40524 14.6411C5.66389 14.6926 5.93197 14.6662 6.17561 14.5653C6.41924 14.4643 6.62748 14.2934 6.77399 14.0742C6.9205 13.8549 6.9987 13.5971 6.9987 13.3334C6.9987 12.9798 6.85822 12.6407 6.60817 12.3906C6.35813 12.1406 6.01899 12.0001 5.66536 12.0001Z" fill="white" stroke="black" stroke-width="0.00032"/>
</svg>
