<svg version="1.1" id="Layer_1" xmlns:x="ns_extend;" xmlns:i="ns_ai;" xmlns:graph="ns_graphs;" xmlns="http://www.w3.org/2000/svg" xmlns:xlink="http://www.w3.org/1999/xlink" x="0px" y="0px" viewBox="0 0 51.9 56.1" style="enable-background:new 0 0 51.9 56.1;" xml:space="preserve">
 <style type="text/css">
  .st0{fill:url(#SVGID_1_);}
 </style>
 <metadata>
  <sfw xmlns="ns_sfw;">
   <slices>
   </slices>
   <sliceSourceBounds bottomLeftOrigin="true" height="56.1" width="51.9" x="0" y="36.3">
   </sliceSourceBounds>
  </sfw>
 </metadata>
 <g>
  <linearGradient id="SVGID_1_" gradientUnits="userSpaceOnUse" x1="25.95" y1="561.3039" x2="25.95" y2="510.1507" gradientTransform="matrix(1 0 0 1 0 -492.7219)">
   <stop offset="0" style="stop-color:#FFF100">
   </stop>
   <stop offset="1" style="stop-color:#F05A28">
   </stop>
  </linearGradient>
  <path class="st0" d="M51.5,24.7c-0.1-0.9-0.2-2-0.6-3.2c-0.3-1.2-0.8-2.5-1.4-3.9c-0.7-1.3-1.6-2.8-2.7-4.1
		c-0.4-0.5-0.9-1.1-1.5-1.6c0.8-3.1-1-5.8-1-5.8c-3-0.2-4.9,0.9-5.6,1.5c-0.1,0-0.2-0.1-0.4-0.2c-0.5-0.2-1-0.4-1.6-0.6
		S35.6,6.5,35,6.3c-0.6-0.1-1.1-0.2-1.7-0.3c-0.1,0-0.2,0-0.3,0c-1.3-4.2-5-6-5-6c-4.2,2.7-5,6.4-5,6.4s0,0.1,0,0.2
		c-0.2,0.1-0.5,0.1-0.7,0.2c-0.3,0.1-0.6,0.2-1,0.3c-0.3,0.1-0.6,0.2-1,0.4c-0.6,0.3-1.3,0.6-1.9,0.9c-0.6,0.3-1.2,0.7-1.8,1.1
		c-0.1,0-0.1-0.1-0.1-0.1c-5.8-2.2-11,0.5-11,0.5C5,16.2,7.8,20.1,8.4,20.8C8.3,21.2,8.1,21.6,8,22c-0.4,1.4-0.8,2.8-1,4.3
		c0,0.2,0,0.4,0,0.6C1.6,29.6,0,35,0,35c4.5,5.2,9.7,5.5,9.7,5.5l0,0c0.7,1.2,1.4,2.3,2.3,3.4c0.4,0.4,0.7,0.9,1.1,1.3
		c-1.6,4.7,0.2,8.6,0.2,8.6c5,0.2,8.3-2.2,9-2.7c0.5,0.2,1,0.3,1.5,0.5c1.5,0.4,3.1,0.6,4.7,0.7c0.4,0,0.8,0,1.2,0H30h0.1h0.2h0.2
		l0,0c2.4,3.4,6.5,3.8,6.5,3.8c2.9-3.1,3.1-6.2,3.1-6.9l0,0l0,0c0-0.1,0-0.1,0-0.1l0,0V49c0.6-0.4,1.2-0.9,1.8-1.4
		c1.2-1.1,2.2-2.3,3.1-3.6c0.1-0.1,0.2-0.2,0.2-0.4c3.3,0.2,5.7-2.1,5.7-2.1C50.3,38,48.4,36.3,48,36l0,0l0,0l0,0l0,0c0,0,0,0-0.1,0
		c0-0.2,0-0.4,0-0.6c0-0.4,0-0.7,0-1.1V34v-0.1v-0.1c0-0.1,0-0.1,0-0.1v-0.2v-0.3c0-0.1,0-0.2,0-0.3s0-0.2,0-0.3v-0.3V32
		c-0.1-0.4-0.1-0.8-0.2-1.1c-0.3-1.5-0.9-2.9-1.7-4.2s-1.7-2.4-2.8-3.4s-2.3-1.7-3.6-2.3c-1.3-0.6-2.6-0.9-3.9-1.1
		c-0.7-0.1-1.3-0.1-2-0.1h-0.2h-0.1h-0.1h-0.1H33c-0.1,0-0.2,0-0.3,0c-0.3,0-0.7,0.1-1,0.1c-1.3,0.2-2.6,0.7-3.7,1.4
		c-1.1,0.7-2.1,1.5-2.8,2.4c-0.8,0.9-1.4,2-1.8,3c-0.4,1.1-0.6,2.2-0.7,3.2c0,0.3,0,0.5,0,0.8c0,0.1,0,0.1,0,0.2v0.2
		c0,0.1,0,0.3,0,0.4c0.1,0.5,0.2,1.1,0.3,1.6c0.3,1,0.8,1.9,1.3,2.7c0.6,0.8,1.3,1.4,2,1.9s1.5,0.9,2.3,1.1c0.8,0.2,1.5,0.3,2.3,0.3
		c0.1,0,0.2,0,0.3,0h0.1h0.1c0.1,0,0.2,0,0.2,0s0,0,0.1,0h0.1h0.1c0.1,0,0.2,0,0.3,0c0.1,0,0.2,0,0.3-0.1c0.2,0,0.3-0.1,0.5-0.1
		c0.3-0.1,0.6-0.2,0.9-0.4c0.3-0.1,0.5-0.3,0.8-0.5c0.1,0,0.1-0.1,0.2-0.2c0.3-0.2,0.3-0.6,0.1-0.8s-0.5-0.3-0.7-0.1
		c-0.1,0-0.1,0.1-0.2,0.1c-0.2,0.1-0.4,0.2-0.7,0.3c-0.2,0.1-0.5,0.1-0.7,0.2c-0.1,0-0.3,0-0.4,0c-0.1,0-0.1,0-0.2,0
		c-0.1,0-0.1,0-0.2,0s-0.1,0-0.2,0s-0.2,0-0.2,0l0,0l0,0h-0.1h-0.1c-0.1,0-0.1,0-0.2,0c-0.6-0.1-1.1-0.2-1.7-0.5
		c-0.6-0.2-1.1-0.6-1.6-1s-0.9-0.9-1.2-1.5c-0.3-0.6-0.6-1.2-0.7-1.9c-0.1-0.3-0.1-0.7-0.1-1c0-0.1,0-0.2,0-0.3l0,0l0,0v-0.1v-0.1
		c0-0.2,0-0.4,0.1-0.6c0.3-1.5,1-2.9,2.2-4c0.3-0.3,0.6-0.5,0.9-0.8c0.3-0.2,0.7-0.4,1-0.6c0.4-0.2,0.7-0.3,1.1-0.4s0.8-0.2,1.2-0.2
		c0.2,0,0.4,0,0.6,0c0.1,0,0.1,0,0.1,0h0.2h0.1l0,0l0,0h0.2c0.4,0,0.9,0.1,1.3,0.2c0.9,0.2,1.7,0.5,2.5,0.9c1.6,0.9,2.9,2.2,3.7,3.9
		c0.4,0.8,0.7,1.7,0.8,2.6c0,0.2,0.1,0.5,0.1,0.7V33v0.2c0,0.1,0,0.1,0,0.2c0,0.1,0,0.1,0,0.2v0.2V34c0,0.1,0,0.3,0,0.4
		c0,0.3,0,0.5-0.1,0.8c0,0.2-0.1,0.5-0.1,0.7s-0.1,0.5-0.2,0.7c-0.1,0.5-0.3,1-0.5,1.4c-0.4,0.9-0.9,1.8-1.5,2.6
		c-1.2,1.6-2.8,3-4.7,3.8c-0.9,0.4-1.9,0.7-2.9,0.9c-0.5,0.1-1,0.1-1.5,0.2h-0.1h-0.1H30h0h-0.1c0.1,0,0,0,0,0l0,0
		c-0.3,0-0.5,0-0.8,0c-1.1-0.1-2.2-0.3-3.2-0.6s-2-0.7-3-1.2c-1.9-1-3.6-2.4-4.9-4.1c-0.7-0.8-1.3-1.7-1.7-2.7
		c-0.5-0.9-0.9-1.9-1.1-3c-0.3-1-0.5-2.1-0.5-3.1v-0.2l0,0l0,0V30v-0.2l0,0v-0.1v-0.1v-0.2l0,0l0,0v-0.1c0-0.1,0-0.3,0-0.4
		c0-0.5,0.1-1,0.1-1.6c0.1-0.5,0.2-1.1,0.3-1.6s0.2-1.1,0.4-1.6c0.3-1,0.7-2,1.1-3c0.9-1.9,2-3.6,3.4-4.9c0.3-0.3,0.7-0.7,1.1-1
		s0.8-0.6,1.2-0.8c0.4-0.3,0.8-0.5,1.2-0.7c0.2-0.1,0.4-0.2,0.6-0.3c0.1,0,0.2-0.1,0.3-0.1c0.1,0,0.2-0.1,0.3-0.1
		c0.4-0.2,0.9-0.3,1.3-0.5c0.1,0,0.2-0.1,0.3-0.1c0.1,0,0.2-0.1,0.3-0.1c0.2-0.1,0.5-0.1,0.7-0.2c0.1,0,0.2-0.1,0.3-0.1
		c0.1,0,0.2,0,0.3-0.1c0.1,0,0.2,0,0.4-0.1h0.2h0.2c0.1,0,0.2,0,0.4-0.1c0.1,0,0.3,0,0.4-0.1c0.1,0,0.3,0,0.4,0s0.2,0,0.3,0h0.2h0.1
		h0.1c0.1,0,0.3,0,0.4,0h0.2c0,0,0.1,0,0,0l0,0h0.1c0.1,0,0.2,0,0.3,0c0.5,0,0.9,0,1.4,0c0.9,0,1.8,0.1,2.6,0.3
		c1.7,0.3,3.3,0.9,4.8,1.6c1.5,0.7,2.8,1.6,3.9,2.5c0.1,0.1,0.1,0.1,0.2,0.2c0.1,0.1,0.1,0.1,0.2,0.2c0.1,0.1,0.3,0.2,0.4,0.4
		c0.1,0.1,0.3,0.2,0.4,0.4c0.1,0.1,0.3,0.3,0.4,0.4c0.5,0.5,0.9,1,1.3,1.5c0.8,1,1.5,2.1,2,3.1c0,0.1,0.1,0.1,0.1,0.2
		s0.1,0.1,0.1,0.2c0.1,0.1,0.1,0.2,0.2,0.4c0.1,0.1,0.1,0.2,0.2,0.4c0.1,0.1,0.1,0.2,0.2,0.3c0.2,0.5,0.4,0.9,0.5,1.3
		c0.2,0.7,0.4,1.3,0.5,1.8c0.1,0.2,0.3,0.3,0.5,0.3s0.4-0.2,0.4-0.4C51.6,26.1,51.5,25.5,51.5,24.7z">
  </path>
 </g>
</svg>