<svg xmlns="http://www.w3.org/2000/svg" shape-rendering="geometricPrecision" text-rendering="geometricPrecision" image-rendering="optimizeQuality" fill-rule="evenodd" clip-rule="evenodd" viewBox="0 0 489 511.8"><path fill="#FF7A59" fill-rule="nonzero" d="M375.25 168.45V107.5c16.43-7.68 26.97-24.15 27.08-42.29V63.8c0-25.95-21.05-46.99-47-46.99h-1.37c-25.95 0-46.99 21.04-46.99 46.99v1.41a46.985 46.985 0 0027.29 42.3v60.94c-23.13 3.53-44.98 13.18-63.19 27.84L103.88 66.16c1.19-4.29 1.83-8.73 1.89-13.17v-.11C105.77 23.68 82.09 0 52.88 0 23.68 0 0 23.68 0 52.88c0 29.18 23.64 52.85 52.81 52.89 9.17-.08 18.16-2.59 26.06-7.23l164.62 128.07a133.501 133.501 0 00-22.16 73.61c0 27.39 8.46 54.17 24.18 76.58l-50.06 50.06a43.926 43.926 0 00-12.43-1.81c-23.96 0-43.38 19.42-43.38 43.37 0 23.96 19.42 43.38 43.38 43.38 23.95 0 43.37-19.42 43.37-43.38v-.13a41.81 41.81 0 00-2.02-12.5l49.52-49.56a133.687 133.687 0 0081.54 27.78c73.76 0 133.57-59.81 133.57-133.57 0-66.05-48.3-122.2-113.61-132.06l-.14.07zm-20.39 200.4c-36.79-1.52-65.85-31.79-65.85-68.62 0-35.43 26.97-65.06 62.23-68.38h3.62c35.8 2.73 63.46 32.58 63.46 68.48 0 35.91-27.66 65.76-63.45 68.48l-.01.04zm0 0z"/></svg>