<svg xmlns="http://www.w3.org/2000/svg" viewBox="0 0 63 63" xml:space="preserve">
  <path 
    d="m34.6.4-1.3 16c-.6-.1-1.2-.1-1.9-.1-.8 0-1.6.1-2.3.2l-.7-7.7c0-.2.2-.5.4-.5h1.3L29.5.5c0-.2.2-.5.4-.5h4.3c.3 0 .5.2.4.4m-10.8.8c-.1-.2-.3-.4-.5-.3l-4 1.5c-.3.1-.4.4-.3.6l3.3 7.1-1.2.5c-.2.1-.3.3-.2.6l3.3 7q1.8-1.05 3.9-1.5zM14 5.7l9.3 13.1c-1.2.8-2.2 1.7-3.1 2.7L14.5 16c-.2-.2-.2-.5 0-.6l1-.8L10 9c-.2-.2-.2-.5 0-.6l3.3-2.7c.2-.3.5-.2.7 0m-7.8 7.5c-.2-.1-.5-.1-.6.1L3.5 17c-.1.2 0 .5.2.6l7.1 3.4-.7 1.1c-.1.2 0 .5.2.6l7.1 3.2c.5-1.3 1.2-2.5 2-3.6zM.9 23.3c0-.2.3-.4.5-.3l15.5 4c-.4 1.3-.6 2.7-.7 4.1l-7.8-.6c-.2 0-.4-.2-.4-.5l.2-1.3L.6 28c-.2 0-.4-.2-.4-.5zM.4 33.8c-.3 0-.4.2-.4.5l.8 4.2c0 .2.3.4.5.3l7.6-2 .2 1.3c0 .2.3.4.5.3l7.5-2.1c-.4-1.3-.7-2.7-.8-4.1zm2.5 11.1c-.1-.2 0-.5.2-.6l14.5-6.9c.5 1.3 1.3 2.5 2.2 3.6l-6.3 4.5c-.2.1-.5.1-.6-.1l-.9-1.1-6.5 4.5c-.2.1-.5.1-.6-.1zm17.5-3L9.1 53.3c-.2.2-.2.5 0 .6l3.3 2.7c.2.2.5.1.6-.1l4.6-6.4 1 .9c.2.2.5.1.6-.1l4.4-6.4c-1.2-.7-2.3-1.6-3.2-2.6m-2.2 18.2c-.2-.1-.3-.3-.2-.6L24.6 45c1.2.6 2.6 1.1 3.9 1.4l-2 7.5c-.1.2-.3.4-.5.3l-1.2-.5-2.1 7.6c-.1.2-.3.4-.5.3zm11.4-13.5-1.3 16c0 .2.2.5.4.5H33c.2 0 .4-.2.4-.5l-.6-7.8h1.3c.2 0 .4-.2.4-.5l-.7-7.7c-.8.1-1.5.2-2.3.2-.6-.1-1.3-.1-1.9-.2M45.1 3.4c.1-.2 0-.5-.2-.6l-4-1.5c-.2-.1-.5.1-.5.3l-2.1 7.6-1.2-.5c-.2-.1-.5.1-.5.3l-2 7.5c1.4.3 2.7.8 3.9 1.4zm8.8 6.3L42.6 21.1c-.9-1-2-1.9-3.2-2.6l4.4-6.4c.1-.2.4-.2.6-.1l1 .9L50 6.5c.1-.2.4-.2.6-.1l3.3 2.7c.1.2.1.5 0 .6m6 9c.2-.1.3-.4.2-.6L58 14.4c-.1-.2-.4-.3-.6-.1l-6.5 4.5-.7-1.1c-.1-.2-.4-.3-.6-.1L43.3 22c.9 1.1 1.6 2.3 2.2 3.6zm2.3 5.8.7 4.2c0 .2-.1.5-.4.5l-15.9 1.5c-.1-1.4-.4-2.8-.8-4.1l7.5-2.1c.2-.1.5.1.5.3l.2 1.3 7.6-2c.3 0 .5.2.6.4M61.5 40c.2.1.5-.1.5-.3l.7-4.2c0-.2-.1-.5-.4-.5l-7.8-.7.2-1.3c0-.2-.1-.5-.4-.5l-7.8-.6c0 1.4-.3 2.8-.7 4.1zm-4.1 9.6c-.1.2-.4.3-.6.1l-13.2-9.1c.8-1.1 1.5-2.3 2-3.6l7.1 3.2c.2.1.3.4.2.6l-.7 1.2 7.1 3.4c.2.1.3.4.2.6zm-17.7-5.4L49 57.3c.1.2.4.2.6.1l3.3-2.7q.3-.3 0-.6l-5.5-5.6 1-.8q.3-.3 0-.6l-5.5-5.5c-.9 1-2 1.9-3.2 2.6m0 17.8c-.2.1-.5-.1-.5-.3L35 46.3q2.1-.45 3.9-1.5l3.3 7c.1.2 0 .5-.2.6l-1.2.5 3.3 7.1c.1.2 0 .5-.2.6z" 
    style="fill:#fff;fill-rule:evenodd;clip-rule:evenodd"/>
</svg>