<svg width="32" height="32" viewBox="0 0 32 32" fill="none" xmlns="http://www.w3.org/2000/svg"><path d="M29.71 13.095a7.98 7.98 0 0 0-.688-6.548 8.06 8.06 0 0 0-8.68-3.867A8.087 8.087 0 0 0 6.64 5.576a7.98 7.98 0 0 0-5.33 3.866 8.06 8.06 0 0 0 .99 9.462 7.97 7.97 0 0 0 .681 6.548 8.07 8.07 0 0 0 8.686 3.867A7.98 7.98 0 0 0 17.68 32a8.075 8.075 0 0 0 7.696-5.608 8 8 0 0 0 5.33-3.867 8.07 8.07 0 0 0-.997-9.43m-12.03 16.81a5.97 5.97 0 0 1-3.835-1.387l.189-.107 6.371-3.678a1.06 1.06 0 0 0 .524-.908v-8.983l2.693 1.558a.1.1 0 0 1 .05.07v7.443a6.006 6.006 0 0 1-5.992 5.993m-12.881-5.5a5.96 5.96 0 0 1-.713-4.018l.19.113 6.377 3.678a1.03 1.03 0 0 0 1.04 0l7.791-4.491v3.11a.1.1 0 0 1-.044.081L12.987 26.6a6 6 0 0 1-8.188-2.195M3.12 10.527a5.98 5.98 0 0 1 3.154-2.63v7.57a1.02 1.02 0 0 0 .517.902l7.753 4.472-2.694 1.558a.1.1 0 0 1-.094 0l-6.44-3.715a6.005 6.005 0 0 1-2.196-8.188zm22.13 5.143-7.778-4.517L20.159 9.6a.1.1 0 0 1 .095 0l6.44 3.722a5.992 5.992 0 0 1-.902 10.805v-7.57a1.05 1.05 0 0 0-.543-.888m2.68-4.031-.189-.114-6.365-3.709a1.03 1.03 0 0 0-1.047 0l-7.784 4.491v-3.11a.09.09 0 0 1 .038-.082l6.44-3.715a6 6 0 0 1 8.908 6.213zM11.075 17.15l-2.693-1.552a.1.1 0 0 1-.05-.076V8.1a5.999 5.999 0 0 1 9.834-4.605l-.19.107-6.37 3.678a1.06 1.06 0 0 0-.524.908zm1.464-3.154 3.47-2 3.475 2v3.999l-3.463 2-3.476-2z" fill="#fff"/></svg>