<svg width="16" height="16" viewBox="0 0 16 16" fill="none" xmlns="http://www.w3.org/2000/svg">
<g id="Github" clip-path="url(#clip0_469_1929)">
<path id="Vector" d="M8.0004 0.587524C3.80139 0.587524 0.400391 3.98851 0.400391 8.1875C0.400391 11.5505 2.57589 14.391 5.59689 15.398C5.97689 15.4645 6.11939 15.2365 6.11939 15.037C6.11939 14.8565 6.10989 14.258 6.10989 13.6215C4.20039 13.973 3.70639 13.156 3.55439 12.7285C3.46889 12.51 3.09839 11.8355 2.77539 11.655C2.50939 11.5125 2.12939 11.161 2.76589 11.1515C3.36439 11.142 3.79189 11.7025 3.93439 11.9305C4.61839 13.08 5.71089 12.757 6.14789 12.5575C6.21439 12.0635 6.41388 11.731 6.6324 11.541C4.94139 11.351 3.17439 10.6955 3.17439 7.7885C3.17439 6.962 3.46889 6.27801 3.95339 5.74601C3.87739 5.55601 3.61139 4.77701 4.02939 3.73201C4.02939 3.73201 4.66589 3.53251 6.11939 4.51101C6.7274 4.34001 7.3734 4.25451 8.0194 4.25451C8.6654 4.25451 9.3114 4.34001 9.9194 4.51101C11.3729 3.52301 12.0094 3.73201 12.0094 3.73201C12.4274 4.77701 12.1614 5.55601 12.0854 5.74601C12.5699 6.27801 12.8644 6.9525 12.8644 7.7885C12.8644 10.705 11.0879 11.351 9.3969 11.541C9.6724 11.7785 9.9099 12.2345 9.9099 12.947C9.9099 13.9635 9.9004 14.7805 9.9004 15.037C9.9004 15.2365 10.0429 15.474 10.4229 15.398C13.5165 14.3536 15.5996 11.4527 15.6004 8.1875C15.6004 3.98851 12.1994 0.587524 8.0004 0.587524Z" fill="#494369"/>
</g>
<defs>
<clipPath id="clip0_469_1929">
<rect width="16" height="16" fill="white"/>
</clipPath>
</defs>
</svg>
