<svg xmlns="http://www.w3.org/2000/svg" width="336" height="96" fill="none" viewBox="0 0 336 96"><mask id="b" width="336" height="96" x="0" y="0" maskUnits="userSpaceOnUse" style="mask-type:alpha"><path fill="url(#a)" d="M0 0h336v96H0z" transform="matrix(1 0 0 -1 0 96)"/></mask><g mask="url(#b)"><mask id="d" width="336" height="96" x="0" y="0" maskUnits="userSpaceOnUse" style="mask-type:alpha"><path fill="url(#c)" d="M0 0h336v96H0z" transform="matrix(1 0 0 -1 0 96)"/></mask><g fill="#67707e" mask="url(#d)"><path d="M5 24h1v1H5zm0 3h1v1H5zm0 3h1v1H5zM5 9h1v1H5zm0 24h1v1H5zm0 3h1v1H5zm0-21h1v1H5zm0 24h1v1H5zm0 12h1v1H5zm0 9h1v1H5zm0 6h1v1H5zm0 12h1v1H5zm0 3h1v1H5zm3-57h1v1H8zm0 3h1v1H8zm0 6h1v1H8zm0 6h1v1H8zm0 3h1v1H8zm0 3h1v1H8zm0 3h1v1H8zm0 18h1v1H8zm0 6h1v1H8zm0 6h1v1H8zm0 6h1v1H8zm0 3h1v1H8zm3-66h1v1h-1zm0-18h1v1h-1zm0 33h1v1h-1zm0 6h1v1h-1zm0 3h1v1h-1zm0 6h1v1h-1zm0 3h1v1h-1zm0 12h1v1h-1zm0 3h1v1h-1zm0 3h1v1h-1zm0 12h1v1h-1zm0 3h1v1h-1zm3-63h1v1h-1zm0 21h1v1h-1zm0 12h1v1h-1zm0 9h1v1h-1zm0 6h1v1h-1zm0 3h1v1h-1zm0 6h1v1h-1zm3-60h1v1h-1zm0 9h1v1h-1zm0 3h1v1h-1zm0 15h1v1h-1zm0 3h1v1h-1zm0 3h1v1h-1zm0 3h1v1h-1zm0 3h1v1h-1zm0 3h1v1h-1zm0 3h1v1h-1zm0 6h1v1h-1zm0 3h1v1h-1zm0 3h1v1h-1zm0 3h1v1h-1zm3-51h1v1h-1zm0 3h1v1h-1zm0 15h1v1h-1zm0 3h1v1h-1zm0 12h1v1h-1zm0 6h1v1h-1zm0 9h1v1h-1zm0 3h1v1h-1zm3-54h1v1h-1zm0-21h1v1h-1zm0 27h1v1h-1zm0 15h1v1h-1zm0 3h1v1h-1zm0 3h1v1h-1zm0 3h1v1h-1zm0 3h1v1h-1zm0 6h1v1h-1zm0 21h1v1h-1zm3-69h1v1h-1zm0 3h1v1h-1zm0 15h1v1h-1zm0 6h1v1h-1zm0 6h1v1h-1zm0 3h1v1h-1zm0 6h1v1h-1zm0 9h1v1h-1zm0 6h1v1h-1zm0 3h1v1h-1zm0 3h1v1h-1zm0 9h1v1h-1zm3-81h1v1h-1zm0 24h1v1h-1zm0-21h1v1h-1zm0 39h1v1h-1zm0 3h1v1h-1zm0 6h1v1h-1zm0 27h1v1h-1zm0 3h1v1h-1zm3-66h1v1h-1zm0-21h1v1h-1zm0 30h1v1h-1zm0-21h1v1h-1zm0 27h1v1h-1zm0-21h1v1h-1zm0 30h1v1h-1zm0 3h1v1h-1zm0 12h1v1h-1zm0 6h1v1h-1zm0 6h1v1h-1zm0 6h1v1h-1zm0 12h1v1h-1zm3-72h1v1h-1zm0 15h1v1h-1zm0 12h1v1h-1zm0 3h1v1h-1zm0 3h1v1h-1zm0 3h1v1h-1zm0 9h1v1h-1zm0 3h1v1h-1zm0 3h1v1h-1zm0 3h1v1h-1zm0 9h1v1h-1zm0 6h1v1h-1zm0 3h1v1h-1zm3-72h1v1h-1zm0 12h1v1h-1zm0-21h1v1h-1zm0 24h1v1h-1zm0 12h1v1h-1zm0 12h1v1h-1zm0 3h1v1h-1zm0 12h1v1h-1zm0 3h1v1h-1zm0 3h1v1h-1zm0 6h1v1h-1zm0 6h1v1h-1zm36-69h1v1h-1zm0-15h1v1h-1zm0 24h1v1h-1zm0-21h1v1h-1zm0 30h1v1h-1zm0 12h1v1h-1zm0 6h1v1h-1zm0 9h1v1h-1zm0 3h1v1h-1zm0 15h1v1h-1zm0 3h1v1h-1zm36-66h1v1h-1zm0 3h1v1h-1zm0 30h1v1h-1zm0 3h1v1h-1zm0 6h1v1h-1zm0 6h1v1h-1zm0 3h1v1h-1zm0 3h1v1h-1zm0 3h1v1h-1zm0 3h1v1h-1zm0 6h1v1h-1zm36-78h1v1h-1zm0 24h1v1h-1zm0 12h1v1h-1zm0 3h1v1h-1zm0 6h1v1h-1zm0 3h1v1h-1zm0 12h1v1h-1zm0 15h1v1h-1zm0 3h1v1h-1zm36-63h1v1h-1zm0-21h1v1h-1zm0 24h1v1h-1zm0 18h1v1h-1zm0 9h1v1h-1zm0 3h1v1h-1zm0 12h1v1h-1zm0 6h1v1h-1zm0 3h1v1h-1zm0 3h1v1h-1zm0 9h1v1h-1zm36-87h1v1h-1zm0 3h1v1h-1zm0 24h1v1h-1zm0 6h1v1h-1zm0-21h1v1h-1zm0 27h1v1h-1zm0 6h1v1h-1zm0 9h1v1h-1zm0 3h1v1h-1zm0 6h1v1h-1zm0 12h1v1h-1zm0 3h1v1h-1zm0 3h1v1h-1zm36-63h1v1h-1zm0 6h1v1h-1zm0 36h1v1h-1zm0 3h1v1h-1zm0 6h1v1h-1zm0 9h1v1h-1zm0 9h1v1h-1zm36-54h1v1h-1zm0 6h1v1h-1zm0 3h1v1h-1zm0 6h1v1h-1zm0 9h1v1h-1zm0 3h1v1h-1zm0 3h1v1h-1zm0 3h1v1h-1zm0 3h1v1h-1zm0 3h1v1h-1zm36-54h1v1h-1zm0-21h1v1h-1zm0 27h1v1h-1zm0 9h1v1h-1zm0 3h1v1h-1zm0 3h1v1h-1zm0 9h1v1h-1zm0 3h1v1h-1zm0 9h1v1h-1zm0 24h1v1h-1zm0 3h1v1h-1zM41 24h1v1h-1zm0 3h1v1h-1zm0 6h1v1h-1zm0-21h1v1h-1zm0 30h1v1h-1zm0 12h1v1h-1zm0 3h1v1h-1zm0 3h1v1h-1zm0 3h1v1h-1zm0 9h1v1h-1zm0 6h1v1h-1zm0 9h1v1h-1zm36-66h1v1h-1zm0 3h1v1h-1zm0 3h1v1h-1zm0-21h1v1h-1zm0 3h1v1h-1zm0 24h1v1h-1zm0 6h1v1h-1zm0 9h1v1h-1zm0 18h1v1h-1zm0 9h1v1h-1zm0 12h1v1h-1zm0 3h1v1h-1zm36-69h1v1h-1zm0-21h1v1h-1zm0 30h1v1h-1zm0-21h1v1h-1zm0 27h1v1h-1zm0-21h1v1h-1zm0 27h1v1h-1zm0 24h1v1h-1zm0 3h1v1h-1zm0 12h1v1h-1zm0 3h1v1h-1zm0 3h1v1h-1zm0 3h1v1h-1zm36-87h1v1h-1zm0 36h1v1h-1zm0 12h1v1h-1zm0 3h1v1h-1zm0 3h1v1h-1zm0 3h1v1h-1zm0 3h1v1h-1zm0 9h1v1h-1zm0 3h1v1h-1zm0 9h1v1h-1zm36-60h1v1h-1zm0 6h1v1h-1zm0-21h1v1h-1zm0 27h1v1h-1zm0-21h1v1h-1zm0 39h1v1h-1zm0 15h1v1h-1zm0 3h1v1h-1zm0 6h1v1h-1zm0 12h1v1h-1zm36-72h1v1h-1zm0 12h1v1h-1zm0 9h1v1h-1zm0 3h1v1h-1zm0 3h1v1h-1zm0 12h1v1h-1zm0 6h1v1h-1zm0 3h1v1h-1zm0 9h1v1h-1zm0 3h1v1h-1zm0 12h1v1h-1zm36-57h1v1h-1zm0 9h1v1h-1zm0 6h1v1h-1zm0 9h1v1h-1zm0 12h1v1h-1zm0 12h1v1h-1zm0 3h1v1h-1zm0 3h1v1h-1zm36-63h1v1h-1zm0-21h1v1h-1zm0 27h1v1h-1zm0-21h1v1h-1zm0 33h1v1h-1zm0 6h1v1h-1zm0 3h1v1h-1zm0 3h1v1h-1zm0 15h1v1h-1zm0 12h1v1h-1zm0 6h1v1h-1zm0 3h1v1h-1zm36-69h1v1h-1zm0 3h1v1h-1zm0-21h1v1h-1zm0 36h1v1h-1zm0 3h1v1h-1zm0 3h1v1h-1zm0 3h1v1h-1zm0 18h1v1h-1zm0 12h1v1h-1zm0 3h1v1h-1zm0 3h1v1h-1zm0 3h1v1h-1zM44 21h1v1h-1zm0 3h1v1h-1zm0-21h1v1h-1zm0 39h1v1h-1zm0 3h1v1h-1zm0 12h1v1h-1zm0 6h1v1h-1zm0 9h1v1h-1zm0 9h1v1h-1zm0 6h1v1h-1zm36-66h1v1h-1zm0 9h1v1h-1zm0 3h1v1h-1zm0 6h1v1h-1zm0 9h1v1h-1zm0 18h1v1h-1zm0 6h1v1h-1zm0 3h1v1h-1zm0 3h1v1h-1zm0 6h1v1h-1zm0 3h1v1h-1zm36-69h1v1h-1zm0 6h1v1h-1zm0 3h1v1h-1zm0 3h1v1h-1zm0 3h1v1h-1zm0-21h1v1h-1zm0 27h1v1h-1zm0 6h1v1h-1zm0 3h1v1h-1zm0 9h1v1h-1zm0 9h1v1h-1zm0 9h1v1h-1zm0 3h1v1h-1zm0 12h1v1h-1zm36-69h1v1h-1zm0-21h1v1h-1zm0 30h1v1h-1zm0 6h1v1h-1zm0 6h1v1h-1zm0 3h1v1h-1zm0 6h1v1h-1zm0 12h1v1h-1zm0 3h1v1h-1zm0 9h1v1h-1zm0 6h1v1h-1zm0 3h1v1h-1zm36-66h1v1h-1zm0 3h1v1h-1zm0-21h1v1h-1zm0 24h1v1h-1zm0 6h1v1h-1zm0 9h1v1h-1zm0 9h1v1h-1zm0 6h1v1h-1zm0 3h1v1h-1zm0 15h1v1h-1zm0 3h1v1h-1zm0 3h1v1h-1zm0 3h1v1h-1zm0 3h1v1h-1zm36-60h1v1h-1zm0-21h1v1h-1zm0 36h1v1h-1zm0 9h1v1h-1zm0 3h1v1h-1zm0 3h1v1h-1zm0 9h1v1h-1zm0 9h1v1h-1zm0 15h1v1h-1zm36-66h1v1h-1zm0-21h1v1h-1zm0 42h1v1h-1zm0 3h1v1h-1zm0 21h1v1h-1zm0 6h1v1h-1zm0 9h1v1h-1zm0 3h1v1h-1zm36-60h1v1h-1zm0 9h1v1h-1zm0-21h1v1h-1zm0 36h1v1h-1zm0 9h1v1h-1zm0 12h1v1h-1zm0 3h1v1h-1zm0 3h1v1h-1zM47 21h1v1h-1zm0 3h1v1h-1zm0-21h1v1h-1zm0 24h1v1h-1zm0 18h1v1h-1zm0 3h1v1h-1zm0 12h1v1h-1zm0 3h1v1h-1zm0 3h1v1h-1zm0 3h1v1h-1zm0 9h1v1h-1zm0 6h1v1h-1zm36-63h1v1h-1zm0 9h1v1h-1zm0-21h1v1h-1zm0 33h1v1h-1zm0 6h1v1h-1zm0 6h1v1h-1zm0 6h1v1h-1zm0 6h1v1h-1zm0 3h1v1h-1zm0 9h1v1h-1zm0 3h1v1h-1zm0 3h1v1h-1zm36-60h1v1h-1zm0-21h1v1h-1zm0 24h1v1h-1zm0-21h1v1h-1zm0 24h1v1h-1zm0-21h1v1h-1zm0 27h1v1h-1zm0-21h1v1h-1zm0 24h1v1h-1zm0 12h1v1h-1zm0 3h1v1h-1zm0 3h1v1h-1zm0 6h1v1h-1zm0 6h1v1h-1zm0 3h1v1h-1zm0 18h1v1h-1zm36-72h1v1h-1zm0 6h1v1h-1zm0 3h1v1h-1zm0-21h1v1h-1zm0 24h1v1h-1zm0-21h1v1h-1zm0 36h1v1h-1zm0 3h1v1h-1zm0 6h1v1h-1zm0 6h1v1h-1zm0 12h1v1h-1zm0 3h1v1h-1zm0 3h1v1h-1zm0 6h1v1h-1zm36-51h1v1h-1zm0 6h1v1h-1zm0 3h1v1h-1zm0 9h1v1h-1zm0 3h1v1h-1zm0 6h1v1h-1zm0 6h1v1h-1zm0 9h1v1h-1zm0 3h1v1h-1zm0 6h1v1h-1zm0 3h1v1h-1zm0 3h1v1h-1zm36-72h1v1h-1zm0 9h1v1h-1zm0 3h1v1h-1zm0-21h1v1h-1zm0 27h1v1h-1zm0 3h1v1h-1zm0 3h1v1h-1zm0 9h1v1h-1zm0 6h1v1h-1zm0 6h1v1h-1zm0 6h1v1h-1zm0 6h1v1h-1zm0 15h1v1h-1zm36-63h1v1h-1zm0 6h1v1h-1zm0-21h1v1h-1zm0 30h1v1h-1zm0 21h1v1h-1zm0 15h1v1h-1zm0 6h1v1h-1zm36-63h1v1h-1zm0 6h1v1h-1zm0 21h1v1h-1zm0 6h1v1h-1zm0 3h1v1h-1zm0 3h1v1h-1zm0 3h1v1h-1zm0 3h1v1h-1zm0 9h1v1h-1zM50 21h1v1h-1zm0 3h1v1h-1zm0 6h1v1h-1zm0 6h1v1h-1zm0-21h1v1h-1zm0 30h1v1h-1zm0 3h1v1h-1zm0 6h1v1h-1zm0 6h1v1h-1zm0 3h1v1h-1zm0 6h1v1h-1zm0 18h1v1h-1zm36-69h1v1h-1zm0 18h1v1h-1zm0 9h1v1h-1zm0 6h1v1h-1zm0 6h1v1h-1zm0 6h1v1h-1zm0 6h1v1h-1zm0 3h1v1h-1zm0 6h1v1h-1zm0 3h1v1h-1zm0 3h1v1h-1zm0 3h1v1h-1zm0 3h1v1h-1zm36-66h1v1h-1zm0 9h1v1h-1zm0-18h1v1h-1zm0 24h1v1h-1zm0 3h1v1h-1zm0 6h1v1h-1zm0 6h1v1h-1zm0 9h1v1h-1zm0 6h1v1h-1zm0 6h1v1h-1zm0 3h1v1h-1zm0 6h1v1h-1zm0 3h1v1h-1zm0 3h1v1h-1zm36-66h1v1h-1zm0 3h1v1h-1zm0 6h1v1h-1zm0 6h1v1h-1zm0 3h1v1h-1zm0 6h1v1h-1zm0 9h1v1h-1zm0 3h1v1h-1zm0 3h1v1h-1zm0 3h1v1h-1zm0 6h1v1h-1zm0 6h1v1h-1zm0 6h1v1h-1zm0 6h1v1h-1zm36-66h1v1h-1zm0-21h1v1h-1zm0 24h1v1h-1zm0-21h1v1h-1zm0 33h1v1h-1zm0 3h1v1h-1zm0 3h1v1h-1zm0 3h1v1h-1zm0 3h1v1h-1zm0 6h1v1h-1zm0 3h1v1h-1zm0 12h1v1h-1zm36-54h1v1h-1zm0 12h1v1h-1zm0 3h1v1h-1zm0 12h1v1h-1zm0 6h1v1h-1zm0 3h1v1h-1zm0 3h1v1h-1zm0 3h1v1h-1zm0 3h1v1h-1zm0 3h1v1h-1zm0 3h1v1h-1zm0 3h1v1h-1zm0 6h1v1h-1zm0 6h1v1h-1zm0 3h1v1h-1zm36-66h1v1h-1zm0 3h1v1h-1zm0 6h1v1h-1zm0 15h1v1h-1zm0 6h1v1h-1zm0 3h1v1h-1zm0 3h1v1h-1zm0 3h1v1h-1zm0 6h1v1h-1zm0 3h1v1h-1zm0 9h1v1h-1zm0 9h1v1h-1zm0 3h1v1h-1zm36-69h1v1h-1zm0-21h1v1h-1zm0 36h1v1h-1zm0-21h1v1h-1zm0 24h1v1h-1zm0 3h1v1h-1zm0 18h1v1h-1zm0 3h1v1h-1zm0 3h1v1h-1zm0 3h1v1h-1zm0 12h1v1h-1zm0 3h1v1h-1zm0 6h1v1h-1zM53 24h1v1h-1zm0 3h1v1h-1zm0-21h1v1h-1zm0 24h1v1h-1zm0-21h1v1h-1zm0 27h1v1h-1zm0 18h1v1h-1zm0 3h1v1h-1zm0 3h1v1h-1zm0 3h1v1h-1zm0 3h1v1h-1zm0 3h1v1h-1zm0 3h1v1h-1zm0 15h1v1h-1zm0 3h1v1h-1zm36-66h1v1h-1zm0-18h1v1h-1zm0 30h1v1h-1zm0 9h1v1h-1zm0 9h1v1h-1zm0 6h1v1h-1zm0 3h1v1h-1zm0 3h1v1h-1zm0 6h1v1h-1zm0 9h1v1h-1zm0 6h1v1h-1zm0 3h1v1h-1zm36-72h1v1h-1zm0 6h1v1h-1zm0-21h1v1h-1zm0 24h1v1h-1zm0-15h1v1h-1zm0 24h1v1h-1zm0-21h1v1h-1zm0 30h1v1h-1zm0 15h1v1h-1zm0 3h1v1h-1zm0 6h1v1h-1zm0 6h1v1h-1zm0 3h1v1h-1zm0 9h1v1h-1zm0 3h1v1h-1zm36-87h1v1h-1zm0 6h1v1h-1zm0 24h1v1h-1zm0-21h1v1h-1zm0 24h1v1h-1zm0 12h1v1h-1zm0 6h1v1h-1zm0 3h1v1h-1zm0 9h1v1h-1zm0 9h1v1h-1zm36-42h1v1h-1zm0-21h1v1h-1zm0 24h1v1h-1zm0-21h1v1h-1zm0 30h1v1h-1zm0 3h1v1h-1zm0 6h1v1h-1zm0 6h1v1h-1zm0 6h1v1h-1zm0 3h1v1h-1zm0 6h1v1h-1zm0 3h1v1h-1zm0 3h1v1h-1zm0 6h1v1h-1zm0 3h1v1h-1zm36-69h1v1h-1zm0 3h1v1h-1zm0 3h1v1h-1zm0 18h1v1h-1zm0 6h1v1h-1zm0 3h1v1h-1zm0 12h1v1h-1zm0 3h1v1h-1zm0 3h1v1h-1zm0 3h1v1h-1zm0 9h1v1h-1zm36-63h1v1h-1zm0 6h1v1h-1zm0 9h1v1h-1zm0 9h1v1h-1zm0 3h1v1h-1zm0 3h1v1h-1zm0 3h1v1h-1zm0 9h1v1h-1zm0 3h1v1h-1zm0 3h1v1h-1zm0 9h1v1h-1zm0 6h1v1h-1zm0 3h1v1h-1zm36-54h1v1h-1zm0 6h1v1h-1zm0 3h1v1h-1zm0 3h1v1h-1zm0 3h1v1h-1zm0 9h1v1h-1zm0 6h1v1h-1zm0 3h1v1h-1zm0 3h1v1h-1zm0 3h1v1h-1zm0 3h1v1h-1zm0 9h1v1h-1zm0 3h1v1h-1zM56 24h1v1h-1zm0 3h1v1h-1zm0 3h1v1h-1zm0 3h1v1h-1zm0 3h1v1h-1zm0-21h1v1h-1zm0 33h1v1h-1zm0 3h1v1h-1zm0 3h1v1h-1zm0 3h1v1h-1zm0 3h1v1h-1zm0 3h1v1h-1zm0 18h1v1h-1zm0 3h1v1h-1zm0 6h1v1h-1zm36-60h1v1h-1zm0-21h1v1h-1zm0 27h1v1h-1zm0 9h1v1h-1zm0 3h1v1h-1zm0 9h1v1h-1zm0 3h1v1h-1zm0 12h1v1h-1zm0 3h1v1h-1zm36-54h1v1h-1zm0 6h1v1h-1zm0 3h1v1h-1zm0 9h1v1h-1zm0 3h1v1h-1zm0 9h1v1h-1zm0 3h1v1h-1zm0 12h1v1h-1zm0 6h1v1h-1zm0 3h1v1h-1zm0 3h1v1h-1zm0 3h1v1h-1zm0 3h1v1h-1zm36-81h1v1h-1zm0 24h1v1h-1zm0-21h1v1h-1zm0 24h1v1h-1zm0-21h1v1h-1zm0 30h1v1h-1zm0 6h1v1h-1zm0 6h1v1h-1zm0 9h1v1h-1zm0 12h1v1h-1zm0 3h1v1h-1zm0 6h1v1h-1zm0 3h1v1h-1zm0 3h1v1h-1zm0 3h1v1h-1zm36-81h1v1h-1zm0 24h1v1h-1zm0 6h1v1h-1zm0 6h1v1h-1zm0 9h1v1h-1zm0 6h1v1h-1zm0 6h1v1h-1zm0 3h1v1h-1zm0 3h1v1h-1zm0 3h1v1h-1zm0 3h1v1h-1zm36-57h1v1h-1zm0 21h1v1h-1zm0 3h1v1h-1zm0 9h1v1h-1zm0 3h1v1h-1zm0 3h1v1h-1zm0 9h1v1h-1zm0 3h1v1h-1zm0 3h1v1h-1zm0 3h1v1h-1zm0 3h1v1h-1zm36-54h1v1h-1zm0 6h1v1h-1zm0 6h1v1h-1zm0 9h1v1h-1zm0 9h1v1h-1zm0 3h1v1h-1zm0 6h1v1h-1zm0 3h1v1h-1zm0 3h1v1h-1zm0 3h1v1h-1zm0 3h1v1h-1zm0 6h1v1h-1zm36-63h1v1h-1zm0 15h1v1h-1zm0 3h1v1h-1zm0 3h1v1h-1zm0 6h1v1h-1zm0 3h1v1h-1zm0 3h1v1h-1zm0 6h1v1h-1zm0 12h1v1h-1zm0 3h1v1h-1zm0 6h1v1h-1zm0 9h1v1h-1zM59 21h1v1h-1zm0-21h1v1h-1zm0 24h1v1h-1zm0 9h1v1h-1zm0-21h1v1h-1zm0 36h1v1h-1zm0 3h1v1h-1zm0 3h1v1h-1zm0 12h1v1h-1zm0 3h1v1h-1zm0 9h1v1h-1zm36-51h1v1h-1zm0 12h1v1h-1zm0 6h1v1h-1zm0 6h1v1h-1zm0 3h1v1h-1zm0 6h1v1h-1zm0 6h1v1h-1zm0 6h1v1h-1zm0 9h1v1h-1zm0 6h1v1h-1zm36-66h1v1h-1zm0 15h1v1h-1zm0-21h1v1h-1zm0 33h1v1h-1zm0 3h1v1h-1zm0 6h1v1h-1zm0 3h1v1h-1zm0 3h1v1h-1zm0 3h1v1h-1zm0 3h1v1h-1zm0 3h1v1h-1zm0 15h1v1h-1zm36-66h1v1h-1zm0 3h1v1h-1zm0-18h1v1h-1zm0 30h1v1h-1zm0-21h1v1h-1zm0 30h1v1h-1zm0 15h1v1h-1zm0 12h1v1h-1zm0 3h1v1h-1zm0 3h1v1h-1zm0 3h1v1h-1zm0 3h1v1h-1zm36-66h1v1h-1zm0 3h1v1h-1zm0 3h1v1h-1zm0 3h1v1h-1zm0 9h1v1h-1zm0-21h1v1h-1zm0 24h1v1h-1zm0 3h1v1h-1zm0 3h1v1h-1zm0 12h1v1h-1zm0 6h1v1h-1zm0 3h1v1h-1zm0 6h1v1h-1zm0 12h1v1h-1zm36-63h1v1h-1zm0-9h1v1h-1zm0 54h1v1h-1zm0 9h1v1h-1zm0 6h1v1h-1zm0 3h1v1h-1zm0 6h1v1h-1zm36-84h1v1h-1zm0 6h1v1h-1zm0 27h1v1h-1zm0 6h1v1h-1zm0 12h1v1h-1zm0 6h1v1h-1zm0 9h1v1h-1zm0 12h1v1h-1zm36-63h1v1h-1zm0 3h1v1h-1zm0 6h1v1h-1zm0 12h1v1h-1zm0 6h1v1h-1zm0 15h1v1h-1zm0 6h1v1h-1zm0 6h1v1h-1zm0 15h1v1h-1zM62 21h1v1h-1zm0 6h1v1h-1zm0 6h1v1h-1zm0-21h1v1h-1zm0 30h1v1h-1zm0 6h1v1h-1zm0 3h1v1h-1zm0 3h1v1h-1zm0 15h1v1h-1zm0 6h1v1h-1zm0 6h1v1h-1zm0 6h1v1h-1zm36-69h1v1h-1zm0 3h1v1h-1zm0-21h1v1h-1zm0 27h1v1h-1zm0-18h1v1h-1zm0 24h1v1h-1zm0 3h1v1h-1zm0 6h1v1h-1zm0 9h1v1h-1zm0 3h1v1h-1zm0 6h1v1h-1zm0 6h1v1h-1zm0 3h1v1h-1zm36-48h1v1h-1zm0-21h1v1h-1zm0 30h1v1h-1zm0-21h1v1h-1zm0 24h1v1h-1zm0-21h1v1h-1zm0 24h1v1h-1zm0-21h1v1h-1zm0 36h1v1h-1zm0 9h1v1h-1zm0 3h1v1h-1zm0 6h1v1h-1zm0 3h1v1h-1zm0 6h1v1h-1zm0 3h1v1h-1zm0 9h1v1h-1zm36-63h1v1h-1zm0-21h1v1h-1zm0 6h1v1h-1zm0 27h1v1h-1zm0 9h1v1h-1zm0 3h1v1h-1zm0 3h1v1h-1zm0 6h1v1h-1zm0 3h1v1h-1zm0 6h1v1h-1zm0 3h1v1h-1zm0 3h1v1h-1zm0 3h1v1h-1zm0 3h1v1h-1zm36-57h1v1h-1zm0 18h1v1h-1zm0 6h1v1h-1zm0 12h1v1h-1zm0 3h1v1h-1zm0 3h1v1h-1zm0 9h1v1h-1zm0 6h1v1h-1zm0 3h1v1h-1zm36-51h1v1h-1zm0 15h1v1h-1zm0 3h1v1h-1zm0 6h1v1h-1zm0 9h1v1h-1zm0 3h1v1h-1zm0 12h1v1h-1zm36-60h1v1h-1zm0-21h1v1h-1zm0 30h1v1h-1zm0-18h1v1h-1zm0 24h1v1h-1zm0 9h1v1h-1zm0 6h1v1h-1zm0 6h1v1h-1zm0 6h1v1h-1zm0 3h1v1h-1zm0 3h1v1h-1zm0 3h1v1h-1zm0 3h1v1h-1zm0 9h1v1h-1zm36-39h1v1h-1zm0 3h1v1h-1zm0 3h1v1h-1zm0 3h1v1h-1zm0 9h1v1h-1zm0 3h1v1h-1zm0 3h1v1h-1zm0 3h1v1h-1zm0 9h1v1h-1zm0 3h1v1h-1zm0 3h1v1h-1zm0 3h1v1h-1zM65 21h1v1h-1zm0 6h1v1h-1zm0-21h1v1h-1zm0 36h1v1h-1zm0 3h1v1h-1zm0 30h1v1h-1zm0 6h1v1h-1zm0 3h1v1h-1zm36-63h1v1h-1zm0 3h1v1h-1zm0 3h1v1h-1zm0-21h1v1h-1zm0 45h1v1h-1zm0 15h1v1h-1zm0 9h1v1h-1zm0 6h1v1h-1zm0 3h1v1h-1zm0 3h1v1h-1zm0 3h1v1h-1zm36-69h1v1h-1zm0-21h1v1h-1zm0 30h1v1h-1zm0-21h1v1h-1zm0 27h1v1h-1zm0 6h1v1h-1zm0 3h1v1h-1zm0 12h1v1h-1zm0 3h1v1h-1zm0 3h1v1h-1zm0 6h1v1h-1zm0 9h1v1h-1zm0 6h1v1h-1zm0 3h1v1h-1zm36-66h1v1h-1zm0-21h1v1h-1zm0 24h1v1h-1zm0 6h1v1h-1zm0-21h1v1h-1zm0 3h1v1h-1zm0 24h1v1h-1zm0-21h1v1h-1zm0 27h1v1h-1zm0 9h1v1h-1zm0 9h1v1h-1zm0 3h1v1h-1zm0 3h1v1h-1zm0 9h1v1h-1zm0 3h1v1h-1zm0 3h1v1h-1zm0 3h1v1h-1zm0 6h1v1h-1zm36-69h1v1h-1zm0-21h1v1h-1zm0 27h1v1h-1zm0-21h1v1h-1zm0 27h1v1h-1zm0-21h1v1h-1zm0 36h1v1h-1zm0 3h1v1h-1zm0 6h1v1h-1zm0 6h1v1h-1zm0 3h1v1h-1zm0 9h1v1h-1zm0 3h1v1h-1zm0 3h1v1h-1zm0 3h1v1h-1zm0 3h1v1h-1zm0 3h1v1h-1zm36-69h1v1h-1zm0-21h1v1h-1zm0 42h1v1h-1zm0 6h1v1h-1zm0 18h1v1h-1zm0 12h1v1h-1zm0 3h1v1h-1zm0 6h1v1h-1zm36-63h1v1h-1zm0 3h1v1h-1zm0-21h1v1h-1zm0 39h1v1h-1zm0 3h1v1h-1zm0 9h1v1h-1zm0 6h1v1h-1zm0 3h1v1h-1zm0 3h1v1h-1zm0 6h1v1h-1zm0 3h1v1h-1zm0 6h1v1h-1zm36-57h1v1h-1zm0 3h1v1h-1zm0 3h1v1h-1zm0 12h1v1h-1zm0 6h1v1h-1zm0 3h1v1h-1zm0 3h1v1h-1zm0 3h1v1h-1zm0 3h1v1h-1zm0 3h1v1h-1zm0 6h1v1h-1zm0 3h1v1h-1zm0 12h1v1h-1zM68 24h1v1h-1zm0 6h1v1h-1zm0 6h1v1h-1zm0 9h1v1h-1zm0 3h1v1h-1zm0 6h1v1h-1zm0 12h1v1h-1zm0 6h1v1h-1zm0 3h1v1h-1zm36-42h1v1h-1zm0 6h1v1h-1zm0 12h1v1h-1zm0 9h1v1h-1zm0 6h1v1h-1zm0 9h1v1h-1zm36-57h1v1h-1zm0 21h1v1h-1zm0 3h1v1h-1zm0 3h1v1h-1zm0 3h1v1h-1zm0 3h1v1h-1zm0 3h1v1h-1zm0 3h1v1h-1zm0 9h1v1h-1zm0 9h1v1h-1zm0 6h1v1h-1zm0 3h1v1h-1zm36-63h1v1h-1zm0 3h1v1h-1zm0 9h1v1h-1zm0 3h1v1h-1zm0-21h1v1h-1zm0 24h1v1h-1zm0 12h1v1h-1zm0 12h1v1h-1zm0 12h1v1h-1zm0 3h1v1h-1zm0 6h1v1h-1zm0 3h1v1h-1zm0 3h1v1h-1zm36-72h1v1h-1zm0 3h1v1h-1zm0-21h1v1h-1zm0 30h1v1h-1zm0-21h1v1h-1zm0 24h1v1h-1zm0-21h1v1h-1zm0 33h1v1h-1zm0 12h1v1h-1zm0 6h1v1h-1zm0 6h1v1h-1zm0 6h1v1h-1zm0 9h1v1h-1zm0 3h1v1h-1zm0 3h1v1h-1zm36-69h1v1h-1zm0-21h1v1h-1zm0 30h1v1h-1zm0-21h1v1h-1zm0 27h1v1h-1zm0-21h1v1h-1zm0 24h1v1h-1zm0 6h1v1h-1zm0 3h1v1h-1zm0 3h1v1h-1zm0 9h1v1h-1zm0 6h1v1h-1zm0 3h1v1h-1zm0 9h1v1h-1zm0 3h1v1h-1zm36-54h1v1h-1zm0-21h1v1h-1zm0 24h1v1h-1zm0-21h1v1h-1zm0 24h1v1h-1zm0 3h1v1h-1zm0-21h1v1h-1zm0 24h1v1h-1zm0 15h1v1h-1zm0 6h1v1h-1zm0 3h1v1h-1zm0 3h1v1h-1zm0 6h1v1h-1zm0 3h1v1h-1zm0 3h1v1h-1zm0 3h1v1h-1zm0 9h1v1h-1zm36-60h1v1h-1zm0 3h1v1h-1zm0-21h1v1h-1zm0 24h1v1h-1zm0-21h1v1h-1zm0 30h1v1h-1zm0 3h1v1h-1zm0 3h1v1h-1zm0 6h1v1h-1zm0 6h1v1h-1zm0 9h1v1h-1zm0 6h1v1h-1zm0 6h1v1h-1zm0 6h1v1h-1zM71 30h1v1h-1zm0 12h1v1h-1zm0 3h1v1h-1zm0 9h1v1h-1zm0 3h1v1h-1zm0 6h1v1h-1zm0 12h1v1h-1zm0 3h1v1h-1zm0 3h1v1h-1zm0 3h1v1h-1zm0 6h1v1h-1zm36-69h1v1h-1zm0 12h1v1h-1zm0 15h1v1h-1zm0 6h1v1h-1zm0 6h1v1h-1zm0 3h1v1h-1zm0 3h1v1h-1zm0 15h1v1h-1zm0 3h1v1h-1zm0 6h1v1h-1zm36-69h1v1h-1zm0-21h1v1h-1zm0 24h1v1h-1zm0 3h1v1h-1zm0-21h1v1h-1zm0 24h1v1h-1zm0 6h1v1h-1zm0 6h1v1h-1zm0 3h1v1h-1zm0 12h1v1h-1zm0 12h1v1h-1zm0 3h1v1h-1zm0 3h1v1h-1zm0 3h1v1h-1zm0 12h1v1h-1zm36-69h1v1h-1zm0 12h1v1h-1zm0-21h1v1h-1zm0 27h1v1h-1zm0 6h1v1h-1zm0 3h1v1h-1zm0 9h1v1h-1zm0 3h1v1h-1zm0 3h1v1h-1zm0 9h1v1h-1zm0 9h1v1h-1zm0 3h1v1h-1zm0 6h1v1h-1zm36-63h1v1h-1zm0-21h1v1h-1zm0 24h1v1h-1zm0 6h1v1h-1zm0 6h1v1h-1zm0 6h1v1h-1zm0 3h1v1h-1zm0 9h1v1h-1zm0 3h1v1h-1zm0 6h1v1h-1zm0 12h1v1h-1zm0 3h1v1h-1zm0 3h1v1h-1zm36-69h1v1h-1zm0 6h1v1h-1zm0-21h1v1h-1zm0 24h1v1h-1zm0-21h1v1h-1zm0 27h1v1h-1zm0-21h1v1h-1zm0 27h1v1h-1zm0 6h1v1h-1zm0 3h1v1h-1zm0 3h1v1h-1zm0 3h1v1h-1zm0 3h1v1h-1zm0 6h1v1h-1zm0 3h1v1h-1zm0 6h1v1h-1zm0 6h1v1h-1zm0 3h1v1h-1zm0 6h1v1h-1zm36-66h1v1h-1zm0-21h1v1h-1zm0 27h1v1h-1zm0 21h1v1h-1zm0 3h1v1h-1zm0 9h1v1h-1zm0 3h1v1h-1zm0 3h1v1h-1zm0 9h1v1h-1zm0 3h1v1h-1zm0 3h1v1h-1zm0 3h1v1h-1zm0 3h1v1h-1zm0 3h1v1h-1zm36-87h1v1h-1zm0 33h1v1h-1zm0 6h1v1h-1zm0 3h1v1h-1zm0 3h1v1h-1zm0 6h1v1h-1zm0 6h1v1h-1zm0 3h1v1h-1zm0 6h1v1h-1zm0 15h1v1h-1zm0 6h1v1h-1z"/></g></g><defs><linearGradient id="a" x1="168" x2="168" y1="96" y2="0" gradientUnits="userSpaceOnUse"><stop stop-opacity="0"/><stop offset=".72"/><stop offset="1" stop-opacity="0"/></linearGradient><linearGradient id="c" x1="0" x2="336" y1="48" y2="48" gradientUnits="userSpaceOnUse"><stop stop-opacity="0"/><stop offset=".101"/><stop offset=".899"/><stop offset="1" stop-opacity="0"/></linearGradient></defs></svg>