<svg fill="#FA8320" version="1.1" id="Capa_1" xmlns="http://www.w3.org/2000/svg" xmlns:xlink="http://www.w3.org/1999/xlink" viewBox="0 0 31.118 31.119" xml:space="preserve"><g id="SVGRepo_bgCarrier" stroke-width="0"></g><g id="SVGRepo_tracerCarrier" stroke-linecap="round" stroke-linejoin="round"></g><g id="SVGRepo_iconCarrier"> <g> <g> <path d="M11.939,8.819c-0.42-0.06-0.834-0.104-1.239-0.136c-0.914,1.908-1.53,3.981-1.794,6.168 c2.799-0.01,7.457,1.146,8.943,8.518c0.731,3.649,2.479,5.508,5.408,5.713c2.418-1.377,4.426-3.386,5.809-5.797 C26.671,15.833,20.206,10.006,11.939,8.819z"></path> <path d="M7.483,16.269c-2.133,0.324-3.621,1.168-4.422,2.504c-1.134,1.89-0.675,4.371-0.339,5.58 c2.164,3.154,5.462,5.472,9.307,6.363c-2.882-3.611-4.57-8.258-4.57-13.457C7.458,16.927,7.469,16.599,7.483,16.269z"></path> <path d="M9.932,7.334c0.589-1.104,1.269-2.152,2.038-3.134c-1.835-0.64-2.397-1.984-2.453-2.979 C5.762,2.808,2.754,5.825,1.188,9.595C3.576,8.108,6.31,7.323,9.321,7.323C9.522,7.325,9.728,7.33,9.932,7.334z"></path> <path d="M7.586,14.941c0.244-2.226,0.833-4.35,1.712-6.316c-3.495,0.007-6.413,1.1-8.791,2.99C0.175,12.874,0,14.196,0,15.562 c0,1.98,0.37,3.879,1.045,5.625c0.06-1.024,0.309-2.098,0.894-3.08C2.989,16.355,4.891,15.291,7.586,14.941z"></path> <path d="M12.888,3.112c1.029-1.149,2.184-2.187,3.439-3.087c-0.256-0.013-0.513-0.02-0.767-0.02c-2.982,0-4.725,0.814-4.725,0.814 C10.804,1.003,10.618,2.593,12.888,3.112z"></path> <path d="M28.184,6.471l-0.027,0.019c-2.914-3.642-7.619-1.747-7.668-1.728c-1.279,0.53-3.613,0.456-7.125-0.224 c-0.751,0.9-1.424,1.869-2.008,2.898c0.254,0.026,0.512,0.056,0.772,0.093c5.934,0.851,11.178,3.966,14.771,8.761 c1.25,1.67,2.248,3.474,2.979,5.364c0.8-1.87,1.24-3.932,1.24-6.092C31.115,12.167,30.029,9.027,28.184,6.471z"></path> <path d="M19.99,3.56c1.086-0.452,2.943-0.836,4.865-0.47c-1.889-1.416-4.113-2.403-6.529-2.839 c-1.447,0.883-2.771,1.944-3.946,3.154C17.811,4.004,19.324,3.835,19.99,3.56z"></path> <path d="M16.574,23.626c-1.293-6.422-5.12-7.531-7.781-7.479c-0.021,0.367-0.031,0.735-0.031,1.106 c0,5.353,1.922,10.207,5.259,13.783c0.506,0.047,1.02,0.075,1.541,0.075c2.023,0,3.961-0.387,5.739-1.092 C18.85,29.208,17.266,27.07,16.574,23.626z"></path> </g> </g> </g></svg>