<svg width="220" height="192" viewBox="0 0 220 192" fill="none" xmlns="http://www.w3.org/2000/svg">
<path d="M141.963 87.8892C135.689 71.1632 129.497 54.8223 123.469 38.4202C122.293 35.2192 120.389 34.2312 117.096 34.2502C97.4441 34.3642 77.7901 34.1592 58.1411 34.3922C53.2481 34.4502 51.6981 32.7522 51.8781 28.0492C52.1591 20.7312 52.0351 13.3952 51.9391 6.06923C51.8901 2.36623 53.1931 0.686245 57.1921 0.704245C85.0051 0.830245 112.818 0.834248 140.631 0.739248C144.055 0.728248 145.617 2.12922 146.82 5.17922C167.944 58.7412 189.162 112.265 210.36 165.799C212.994 172.451 215.651 179.096 218.236 185.768C218.822 187.281 219.766 188.79 219.052 190.588C217.63 191.771 215.897 191.331 214.284 191.337C204.958 191.374 195.626 191.161 186.307 191.427C182.301 191.541 180.435 190.107 179.048 186.374C167.395 155.018 155.543 123.735 143.748 92.4322C143.219 91.0312 142.651 89.6442 141.963 87.8892ZM55.9981 157.96C67.6511 157.96 78.8071 158.076 89.9581 157.9C94.0701 157.834 95.5481 159.326 95.4141 163.448C95.1671 171.098 95.2091 178.764 95.3931 186.418C95.4781 189.991 94.3931 191.426 90.5971 191.41C62.1311 191.293 33.6651 191.292 5.19908 191.418C1.21608 191.435 -0.0739236 189.93 0.0160764 186.136C0.195076 178.649 0.208075 171.153 0.0610746 163.666C-0.0239254 159.344 1.81507 157.86 6.05807 157.899C22.5361 158.051 39.0181 157.961 55.9981 157.96Z" fill="#FF3F17"/>
</svg>
