<svg width="256" height="256" viewBox="0 0 256 256" fill="none" xmlns="http://www.w3.org/2000/svg">
<g clip-path="url(#clip0_20010_97226)">
<path d="M85.333 0H128V42.667H85.333V0ZM170.667 0H213.334V42.667H170.667V0ZM42.667 42.667H85.334V85.334H42.667V42.667ZM128 42.667H170.667V85.334H128V42.667ZM213.333 42.667H256V85.334H213.333V42.667ZM0 85.333H42.667V128H0V85.333Z" fill="black"/>
<path d="M85.333 85.333H128V128H85.333V85.333ZM0 128H42.667V170.667H0V128ZM85.333 128H128V170.667H85.333V128Z" fill="black"/>
<path d="M42.668 170.667H85.335V213.334H42.668V170.667ZM128.001 170.667H170.668V213.334H128.001V170.667ZM213.334 170.667H256.001V213.334H213.334V170.667Z" fill="black"/>
<path d="M85.332 213.333H127.999V256H85.332V213.333ZM170.666 213.333H213.333V256H170.666V213.333Z" fill="black"/>
</g>
<defs>
<clipPath id="clip0_20010_97226">
<rect width="256" height="256" fill="white"/>
</clipPath>
</defs>
</svg>
