<svg viewBox="0 0 256 549" xmlns="http://www.w3.org/2000/svg" width="256" height="549" preserveAspectRatio="xMidYMid"><path fill="#01EC64" d="M175.622 61.108C152.612 33.807 132.797 6.078 128.749.32a1.03 1.03 0 0 0-1.492 0c-4.048 5.759-23.863 33.487-46.874 60.788-197.507 251.896 31.108 421.89 31.108 421.89l1.917 1.28c1.704 26.234 5.966 63.988 5.966 63.988h17.045s4.26-37.54 5.965-63.987l1.918-1.494c.213.214 228.828-169.78 31.32-421.677Zm-47.726 418.05s-10.227-8.744-12.997-13.222v-.428l12.358-274.292c0-.853 1.279-.853 1.279 0l12.357 274.292v.428c-2.77 4.478-12.997 13.223-12.997 13.223Z"/></svg>