<svg xmlns="http://www.w3.org/2000/svg" height="1em" style="flex:none;line-height:1" viewBox="0 0 24 24" width="1em"><path d="M19.785 0v7.272H22.5V17.62h-2.935V24l-7.037-6.194v6.145h-1.091v-6.152L4.392 24v-6.465H1.5V7.188h2.884V0l7.053 6.494V.19h1.09v6.49L19.786 0zm-7.257 9.044v7.319l5.946 5.234V14.44l-5.946-5.397zm-1.099-.08-5.946 5.398v7.235l5.946-5.234zm8.136 7.58h1.844V8.349H13.46l6.105 5.54zm-8.982-8.28H2.59v8.195h1.8v-2.576zM5.475 2.476v4.71h5.115zm13.219 0-5.115 4.71h5.115z" fill="#22B8CD"/></svg>