<svg width="135" height="135" viewBox="0 0 135 135" fill="none" xmlns="http://www.w3.org/2000/svg">
<path d="M67.1811 0.169922C30.1411 0.169922 0.121094 30.1899 0.121094 67.2299C0.121094 104.27 30.1511 134.3 67.1911 134.3C104.231 134.3 134.261 104.27 134.261 67.2299C134.261 30.1899 104.231 0.169922 67.1811 0.169922ZM43.9311 105.77C44.1611 106.18 44.2811 106.64 44.2611 107.11C44.2111 108.4 43.2011 109.46 41.8711 109.4C40.9611 109.36 40.1311 108.89 39.3511 108.41C33.7111 104.95 28.6911 100.07 26.1011 93.8999C23.8011 88.5499 23.5211 82.4299 25.0711 76.8399C28.8411 62.9199 43.9511 51.3299 55.8011 49.8599C66.0411 48.5799 68.7511 55.1799 62.5611 60.0099C44.6411 73.3499 31.3211 82.7899 43.9311 105.77ZM111.321 86.5699C107.681 94.0899 103.671 99.1399 100.881 102.1C92.5811 111.34 79.5911 117.39 67.5911 112.42C60.7011 109.56 55.3111 103.15 54.3511 95.6499C51.7411 73.4899 91.0911 68.2199 85.6911 45.7399C83.1311 38.4599 74.5711 35.2899 67.5511 34.5599C55.0011 33.2099 42.9211 38.8299 34.3311 47.7699C32.0011 49.8899 29.6711 53.1999 26.3911 53.7099C24.0611 54.0299 21.8511 52.3299 22.1411 49.8699C22.7911 44.3499 28.9511 38.0599 32.8711 34.2699C46.4611 21.6399 66.8211 17.1799 84.5311 22.4599C94.3911 25.3699 104.161 32.2299 105.901 43.0299C107.571 53.7299 101.371 63.9099 94.2611 71.3699C88.3211 77.6299 80.7511 81.7299 74.4711 87.5599C70.8011 90.9699 69.3011 95.1599 73.7311 98.7099C82.9611 103.65 92.9011 96.2999 98.7811 89.3399C100.011 87.8599 101.141 86.3099 102.231 84.7299C103.151 83.3799 104.011 81.8399 105.231 80.7299C107.171 78.5099 110.671 78.7199 111.951 81.5099C112.611 83.0799 112.021 85.0899 111.311 86.5699H111.321Z" fill="#6706CE"/>
</svg>
