<svg xmlns="http://www.w3.org/2000/svg" xmlns:xlink="http://www.w3.org/1999/xlink" width="1920" zoomAndPan="magnify" viewBox="0 0 1440 509.999993" height="680" preserveAspectRatio="xMidYMid meet" version="1.0"><defs><g/></defs><path fill="#000000" d="M 364.613281 399.960938 L 346.589844 428.582031 C 345.832031 429.789062 344.164062 430.015625 343.109375 429.054688 L 338.425781 424.777344 L 332.554688 419.425781 C 331.957031 418.878906 331.691406 418.054688 331.855469 417.261719 L 339.800781 379.4375 C 340.164062 377.703125 342.277344 377.023438 343.585938 378.214844 L 358.929688 392.21875 L 364.21875 397.050781 C 365.039062 397.796875 365.203125 399.023438 364.613281 399.960938 Z M 364.613281 399.960938 " fill-opacity="1" fill-rule="nonzero"/><path fill="#000000" d="M 411.765625 382.148438 L 408.410156 385.214844 L 405.710938 387.675781 C 403.625 389.578125 400.320312 389.132812 398.8125 386.742188 L 387.671875 369.046875 C 386.839844 367.726562 384.914062 367.726562 384.085938 369.046875 L 372.933594 386.742188 C 371.429688 389.132812 368.125 389.578125 366.039062 387.675781 L 363.339844 385.214844 L 359.980469 382.148438 C 358.257812 380.574219 358.011719 377.945312 359.410156 376.078125 L 382.515625 339.773438 C 384.082031 337.316406 387.667969 337.316406 389.234375 339.773438 L 412.339844 376.078125 C 413.738281 377.945312 413.492188 380.574219 411.765625 382.148438 Z M 411.765625 382.148438 " fill-opacity="1" fill-rule="nonzero"/><path fill="#000000" d="M 417.375 439.339844 L 410.140625 445.9375 C 408.246094 447.664062 405.253906 447.257812 403.886719 445.097656 L 390.820312 424.773438 C 389.738281 423.089844 387.875 422.074219 385.875 422.074219 C 383.875 422.074219 382.011719 423.089844 380.929688 424.773438 L 367.863281 445.097656 C 366.496094 447.257812 363.503906 447.664062 361.609375 445.9375 L 358.539062 443.136719 L 354.375 439.339844 C 352.902344 437.996094 352.605469 435.792969 353.667969 434.105469 L 372.34375 404.460938 L 376.753906 397.457031 L 383.285156 387.085938 C 383.84375 386.199219 384.820312 385.660156 385.875 385.660156 C 386.929688 385.660156 387.902344 386.199219 388.464844 387.085938 L 395.003906 397.457031 L 399.414062 404.460938 L 418.082031 434.105469 C 419.140625 435.792969 418.847656 437.996094 417.375 439.339844 Z M 417.375 439.339844 " fill-opacity="1" fill-rule="nonzero"/><path fill="#000000" d="M 443.351562 430.308594 L 440.605469 436.355469 L 431.761719 455.816406 L 431.761719 455.824219 L 427.328125 465.554688 C 426.359375 467.691406 424.808594 469.445312 422.921875 470.660156 C 421.023438 471.882812 418.785156 472.570312 416.4375 472.570312 L 355.308594 472.570312 C 350.613281 472.570312 346.359375 469.824219 344.414062 465.554688 L 339.984375 455.824219 L 339.984375 455.816406 L 331.136719 436.355469 L 328.390625 430.308594 C 327.632812 428.636719 329.710938 427.128906 331.070312 428.363281 L 334.300781 431.320312 L 341.007812 437.441406 L 347.714844 443.558594 L 354.410156 449.675781 L 361.117188 455.796875 L 362.113281 456.703125 C 365.089844 459.421875 369.796875 458.78125 371.945312 455.375 L 384.347656 435.683594 C 384.679688 435.164062 385.253906 434.84375 385.871094 434.84375 C 386.488281 434.84375 387.066406 435.164062 387.394531 435.683594 L 399.796875 455.375 C 401.042969 457.347656 403.148438 458.394531 405.28125 458.394531 C 406.828125 458.394531 408.386719 457.847656 409.636719 456.703125 L 410.625 455.796875 L 417.332031 449.675781 L 424.03125 443.558594 L 430.734375 437.441406 L 437.441406 431.320312 L 440.675781 428.363281 C 442.039062 427.128906 444.117188 428.636719 443.351562 430.308594 Z M 443.351562 430.308594 " fill-opacity="1" fill-rule="nonzero"/><path fill="#000000" d="M 407.132812 399.960938 L 425.15625 428.582031 C 425.914062 429.789062 427.582031 430.015625 428.636719 429.054688 L 433.320312 424.777344 L 439.191406 419.425781 C 439.789062 418.878906 440.054688 418.054688 439.890625 417.261719 L 431.945312 379.4375 C 431.582031 377.703125 429.46875 377.023438 428.160156 378.214844 L 412.816406 392.21875 L 407.523438 397.050781 C 406.707031 397.796875 406.542969 399.023438 407.132812 399.960938 Z M 407.132812 399.960938 " fill-opacity="1" fill-rule="nonzero"/><g fill="#000000" fill-opacity="1"><g transform="translate(475.802294, 458.875427)"><g><path d="M 50.875 -98.5 C 57.925781 -98.5 63.953125 -97.207031 68.953125 -94.625 C 73.960938 -92.039062 77.75 -88.425781 80.3125 -83.78125 C 82.875 -79.132812 84.15625 -73.734375 84.15625 -67.578125 C 84.15625 -61.421875 82.875 -56.03125 80.3125 -51.40625 C 77.75 -46.78125 73.960938 -43.175781 68.953125 -40.59375 C 63.953125 -38.007812 57.925781 -36.71875 50.875 -36.71875 L 32.265625 -36.71875 L 32.265625 0 L 12.796875 0 L 12.796875 -98.5 Z M 48.3125 -52.140625 C 59.132812 -52.140625 64.546875 -57.285156 64.546875 -67.578125 C 64.546875 -77.910156 59.132812 -83.078125 48.3125 -83.078125 L 32.265625 -83.078125 L 32.265625 -52.140625 Z M 48.3125 -52.140625 "/></g></g></g><g fill="#000000" fill-opacity="1"><g transform="translate(565.810437, 458.875427)"><g><path d="M 59.21875 -74.3125 L 78.21875 -74.3125 L 48.375 4.65625 C 45.988281 11.03125 43.367188 16.160156 40.515625 20.046875 C 37.671875 23.929688 34.304688 26.816406 30.421875 28.703125 C 26.535156 30.585938 21.875 31.53125 16.4375 31.53125 C 13.25 31.53125 10.363281 31.28125 7.78125 30.78125 C 5.195312 30.289062 3.097656 29.644531 1.484375 28.84375 L 4.453125 13.75 L 5.65625 13.34375 C 6.78125 13.925781 8.171875 14.394531 9.828125 14.75 C 11.492188 15.113281 13.203125 15.296875 14.953125 15.296875 C 17.960938 15.296875 20.46875 14.898438 22.46875 14.109375 C 24.46875 13.328125 26.160156 12.023438 27.546875 10.203125 C 28.941406 8.390625 30.179688 5.863281 31.265625 2.625 L 1.609375 -74.3125 L 21.15625 -74.3125 L 39.609375 -22.640625 L 41.171875 -22.640625 L 41.03125 -22.09375 Z M 59.21875 -74.3125 "/></g></g></g><g fill="#000000" fill-opacity="1"><g transform="translate(645.578134, 458.875427)"><g><path d="M 10.71875 0 L 10.71875 -74.3125 L 28.640625 -74.3125 L 28.640625 -63.40625 L 30.046875 -63.0625 C 34.671875 -71.507812 42.171875 -75.734375 52.546875 -75.734375 C 61.128906 -75.734375 67.429688 -73.394531 71.453125 -68.71875 C 75.472656 -64.050781 77.484375 -57.25 77.484375 -48.3125 L 77.484375 0 L 58.8125 0 L 58.8125 -46.015625 C 58.8125 -50.953125 57.820312 -54.507812 55.84375 -56.6875 C 53.875 -58.875 50.710938 -59.96875 46.359375 -59.96875 C 41.015625 -59.96875 36.847656 -58.238281 33.859375 -54.78125 C 30.867188 -51.320312 29.375 -45.882812 29.375 -38.46875 L 29.375 0 Z M 10.71875 0 "/></g></g></g><g fill="#000000" fill-opacity="1"><g transform="translate(732.621938, 458.875427)"><g><path d="M 73.4375 -32.953125 L 25.734375 -32.8125 C 26.273438 -26.382812 28.101562 -21.710938 31.21875 -18.796875 C 34.34375 -15.878906 38.625 -14.421875 44.0625 -14.421875 C 48.332031 -14.421875 51.789062 -15.21875 54.4375 -16.8125 C 57.09375 -18.40625 59.226562 -20.816406 60.84375 -24.046875 L 62.25 -24.046875 L 74.65625 -16.109375 C 72.226562 -10.890625 68.566406 -6.660156 63.671875 -3.421875 C 58.773438 -0.191406 52.238281 1.421875 44.0625 1.421875 C 36.382812 1.421875 29.75 -0.0351562 24.15625 -2.953125 C 18.5625 -5.878906 14.25 -10.226562 11.21875 -16 C 8.1875 -21.769531 6.671875 -28.8125 6.671875 -37.125 C 6.671875 -45.570312 8.265625 -52.691406 11.453125 -58.484375 C 14.640625 -64.273438 18.953125 -68.597656 24.390625 -71.453125 C 29.828125 -74.304688 35.9375 -75.734375 42.71875 -75.734375 C 53.226562 -75.734375 61.28125 -72.945312 66.875 -67.375 C 72.46875 -61.800781 75.265625 -53.625 75.265625 -42.84375 C 75.265625 -38.9375 75.128906 -35.90625 74.859375 -33.75 Z M 57.40625 -45 C 57.226562 -50.664062 55.914062 -54.789062 53.46875 -57.375 C 51.019531 -59.957031 47.4375 -61.25 42.71875 -61.25 C 33.28125 -61.25 27.734375 -55.832031 26.078125 -45 Z M 57.40625 -45 "/></g></g></g><g fill="#000000" fill-opacity="1"><g transform="translate(813.400193, 458.875427)"><g><path d="M 43.328125 1.421875 C 36.140625 1.421875 29.78125 -0.0703125 24.25 -3.0625 C 18.726562 -6.050781 14.414062 -10.441406 11.3125 -16.234375 C 8.21875 -22.023438 6.671875 -28.988281 6.671875 -37.125 C 6.671875 -45.300781 8.21875 -52.285156 11.3125 -58.078125 C 14.414062 -63.867188 18.707031 -68.257812 24.1875 -71.25 C 29.664062 -74.238281 35.929688 -75.734375 42.984375 -75.734375 C 58.660156 -75.734375 68.703125 -70.050781 73.109375 -58.6875 L 60.296875 -49.515625 L 58.890625 -49.515625 C 57.359375 -53.023438 55.367188 -55.628906 52.921875 -57.328125 C 50.472656 -59.035156 47.160156 -59.890625 42.984375 -59.890625 C 37.597656 -59.890625 33.398438 -58.023438 30.390625 -54.296875 C 27.378906 -50.578125 25.875 -44.851562 25.875 -37.125 C 25.875 -29.488281 27.398438 -23.796875 30.453125 -20.046875 C 33.503906 -16.296875 37.796875 -14.421875 43.328125 -14.421875 C 47.367188 -14.421875 50.789062 -15.507812 53.59375 -17.6875 C 56.40625 -19.863281 58.414062 -22.992188 59.625 -27.078125 L 61.046875 -27.21875 L 74.3125 -19.9375 C 72.425781 -13.65625 68.929688 -8.523438 63.828125 -4.546875 C 58.734375 -0.566406 51.898438 1.421875 43.328125 1.421875 Z M 43.328125 1.421875 "/></g></g></g><g fill="#000000" fill-opacity="1"><g transform="translate(890.001447, 458.875427)"><g><path d="M 43.1875 1.421875 C 35.90625 1.421875 29.515625 -0.0703125 24.015625 -3.0625 C 18.515625 -6.050781 14.25 -10.429688 11.21875 -16.203125 C 8.1875 -21.972656 6.671875 -28.945312 6.671875 -37.125 C 6.671875 -45.300781 8.1875 -52.285156 11.21875 -58.078125 C 14.25 -63.867188 18.515625 -68.257812 24.015625 -71.25 C 29.515625 -74.238281 35.90625 -75.734375 43.1875 -75.734375 C 50.46875 -75.734375 56.859375 -74.238281 62.359375 -71.25 C 67.859375 -68.257812 72.132812 -63.867188 75.1875 -58.078125 C 78.238281 -52.285156 79.765625 -45.300781 79.765625 -37.125 C 79.765625 -28.945312 78.238281 -21.972656 75.1875 -16.203125 C 72.132812 -10.429688 67.859375 -6.050781 62.359375 -3.0625 C 56.859375 -0.0703125 50.46875 1.421875 43.1875 1.421875 Z M 43.1875 -14.421875 C 54.726562 -14.421875 60.5 -21.988281 60.5 -37.125 C 60.5 -44.988281 59.015625 -50.75 56.046875 -54.40625 C 53.085938 -58.0625 48.800781 -59.890625 43.1875 -59.890625 C 31.644531 -59.890625 25.875 -52.300781 25.875 -37.125 C 25.875 -21.988281 31.644531 -14.421875 43.1875 -14.421875 Z M 43.1875 -14.421875 "/></g></g></g><g fill="#000000" fill-opacity="1"><g transform="translate(976.371514, 458.875427)"><g><path d="M 10.71875 0 L 10.71875 -74.3125 L 28.640625 -74.3125 L 28.640625 -63.40625 L 30.046875 -63.0625 C 34.671875 -71.507812 42.171875 -75.734375 52.546875 -75.734375 C 61.128906 -75.734375 67.429688 -73.394531 71.453125 -68.71875 C 75.472656 -64.050781 77.484375 -57.25 77.484375 -48.3125 L 77.484375 0 L 58.8125 0 L 58.8125 -46.015625 C 58.8125 -50.953125 57.820312 -54.507812 55.84375 -56.6875 C 53.875 -58.875 50.710938 -59.96875 46.359375 -59.96875 C 41.015625 -59.96875 36.847656 -58.238281 33.859375 -54.78125 C 30.867188 -51.320312 29.375 -45.882812 29.375 -38.46875 L 29.375 0 Z M 10.71875 0 "/></g></g></g><g fill="#000000" fill-opacity="1"><g transform="translate(1063.415317, 458.875427)"><g><path d="M 73.4375 -32.953125 L 25.734375 -32.8125 C 26.273438 -26.382812 28.101562 -21.710938 31.21875 -18.796875 C 34.34375 -15.878906 38.625 -14.421875 44.0625 -14.421875 C 48.332031 -14.421875 51.789062 -15.21875 54.4375 -16.8125 C 57.09375 -18.40625 59.226562 -20.816406 60.84375 -24.046875 L 62.25 -24.046875 L 74.65625 -16.109375 C 72.226562 -10.890625 68.566406 -6.660156 63.671875 -3.421875 C 58.773438 -0.191406 52.238281 1.421875 44.0625 1.421875 C 36.382812 1.421875 29.75 -0.0351562 24.15625 -2.953125 C 18.5625 -5.878906 14.25 -10.226562 11.21875 -16 C 8.1875 -21.769531 6.671875 -28.8125 6.671875 -37.125 C 6.671875 -45.570312 8.265625 -52.691406 11.453125 -58.484375 C 14.640625 -64.273438 18.953125 -68.597656 24.390625 -71.453125 C 29.828125 -74.304688 35.9375 -75.734375 42.71875 -75.734375 C 53.226562 -75.734375 61.28125 -72.945312 66.875 -67.375 C 72.46875 -61.800781 75.265625 -53.625 75.265625 -42.84375 C 75.265625 -38.9375 75.128906 -35.90625 74.859375 -33.75 Z M 57.40625 -45 C 57.226562 -50.664062 55.914062 -54.789062 53.46875 -57.375 C 51.019531 -59.957031 47.4375 -61.25 42.71875 -61.25 C 33.28125 -61.25 27.734375 -55.832031 26.078125 -45 Z M 57.40625 -45 "/></g></g></g></svg>