<svg width="56" height="12" xmlns="http://www.w3.org/2000/svg" viewBox="0 0 56 12"><style>path{fill:#110F1F}@media (prefers-color-scheme:dark){path{fill:#fff}}</style><path d="M0 11.6V.4h8.96v4.48H6.72V2.64H2.24v2.24h4.48v2.24H2.24v4.48H0Zm6.72 0V7.12h2.24v4.48H6.72Zm4.48 0V.4h6.72v2.24h-4.48v2.24h4.48v2.24h-4.48v2.24h4.48v2.24H11.2Zm8.96 0V.4h6.72v2.24H22.4v2.24h4.48v2.24H22.4v4.48h-2.24Zm8.96 0V.4h2.24v8.96h4.48v2.24h-6.72Zm8.96 0V.4h6.72v2.24h-4.48v2.24h4.48v2.24h-4.48v2.24h4.48v2.24h-6.72Zm8.96-6.72V.4h2.24v4.48h-2.24Zm6.72 0V.4H56v4.48h-2.24Zm-4.48 2.24V4.88h4.48v2.24h-4.48Zm-2.24 4.48V7.12h2.24v4.48h-2.24Zm6.72 0V7.12H56v4.48h-2.24Z"/></svg>